 <svg version="1.0" xmlns="http://www.w3.org/2000/svg" width="700.000000pt" height="700.000000pt" viewBox="0 0 700.000000 700.000000" preserveAspectRatio="xMidYMid meet">
<metadata>
Created by potrace 1.12, written by Peter Selinger 2001-2015
</metadata>
<g transform="translate(0.000000,700.000000) scale(0.100000,-0.100000)" fill="#000000" stroke="none">
<path d="M2585 6984 c-6 -8 -45 -23 -88 -34 -43 -9 -85 -24 -95 -32 -9 -8 -30
-20 -46 -27 -40 -17 -77 -46 -155 -121 -68 -66 -87 -90 -130 -164 -44 -77 -51
-91 -51 -108 0 -9 -10 -38 -22 -65 -20 -43 -22 -65 -23 -198 0 -142 2 -154 30
-230 16 -44 40 -95 52 -114 13 -19 23 -39 23 -45 0 -41 188 -234 265 -272 28
-13 61 -31 75 -38 95 -54 128 -61 305 -61 161 0 175 2 260 29 82 27 136 55
205 103 43 31 175 169 190 199 8 16 25 45 37 64 12 19 25 49 29 65 4 17 16 48
28 70 19 36 21 56 21 215 0 170 -1 177 -29 250 -16 41 -35 82 -42 90 -6 8 -22
38 -35 65 -15 32 -57 83 -114 140 -96 96 -193 155 -306 189 -31 8 -62 23 -69
31 -19 23 -301 22 -315 -1z"></path>
<path d="M5035 5379 c-38 -4 -187 -13 -330 -19 -252 -10 -461 -29 -577 -51
-46 -9 -63 -19 -96 -53 -21 -22 -50 -67 -63 -99 -22 -56 -23 -61 -11 -180 11
-116 20 -237 42 -623 15 -249 37 -311 135 -379 l56 -38 187 6 c103 3 246 13
317 21 72 9 234 20 361 25 204 8 236 12 288 33 65 26 112 66 132 115 8 17 18
34 24 38 14 9 12 119 -5 265 -8 69 -19 249 -26 400 -10 241 -14 286 -36 360
-29 101 -64 141 -150 171 -59 20 -126 22 -248 8z"></path>
<path d="M2885 5190 c-254 -10 -460 -25 -537 -41 -40 -8 -70 -22 -98 -46 -50
-43 -63 -68 -84 -161 -15 -65 -16 -196 -16 -1270 0 -1380 -14 -1998 -50 -2131
-11 -41 -20 -86 -20 -100 0 -22 -40 -118 -75 -181 -42 -75 -69 -120 -95 -160
-17 -25 -36 -59 -44 -76 -8 -17 -21 -36 -29 -43 -8 -6 -21 -26 -28 -44 -7 -18
-19 -40 -27 -49 -12 -15 -85 -131 -142 -228 -11 -19 -34 -55 -50 -80 -16 -25
-37 -61 -46 -80 -9 -19 -25 -53 -35 -75 -52 -108 9 -250 143 -336 26 -17 63
-35 83 -40 23 -7 39 -18 42 -30 5 -17 15 -19 100 -19 90 0 96 1 115 25 11 14
25 25 33 25 16 0 91 71 126 120 14 19 47 72 75 118 27 45 61 101 76 125 15 23
37 60 49 82 12 22 29 51 39 65 9 14 28 43 42 65 54 87 84 134 103 166 11 19
30 49 42 69 12 19 29 51 38 70 8 19 26 58 39 85 67 138 118 358 136 585 6 69
19 175 29 235 11 61 23 153 26 205 8 116 40 287 60 316 17 26 79 40 117 25 14
-5 38 -27 52 -48 15 -21 38 -54 51 -73 13 -19 32 -48 41 -65 18 -32 148 -233
195 -302 16 -23 29 -46 29 -51 0 -5 7 -15 15 -22 7 -6 29 -37 47 -67 18 -31
40 -66 48 -78 33 -48 48 -72 76 -118 16 -27 39 -61 52 -77 12 -15 29 -43 37
-62 8 -18 23 -46 35 -63 11 -16 20 -37 20 -45 0 -9 9 -34 21 -55 12 -25 29
-98 44 -190 30 -196 33 -226 45 -445 10 -179 26 -316 51 -429 13 -61 65 -127
108 -138 14 -3 45 -14 69 -24 39 -17 46 -17 72 -4 16 8 53 20 81 26 130 28
239 122 291 251 32 80 34 123 13 254 -8 50 -22 197 -30 325 -8 129 -22 277
-31 329 -8 52 -19 130 -24 172 -5 42 -18 94 -28 115 -11 21 -23 56 -26 78 -4
21 -19 59 -32 84 -13 25 -24 51 -24 57 0 7 -25 60 -55 119 -30 58 -55 112 -55
119 0 7 -9 25 -21 40 -11 14 -25 43 -31 63 -5 21 -21 53 -34 72 -13 20 -24 40
-24 46 0 5 -22 55 -49 110 -81 166 -121 251 -121 259 0 4 -9 20 -19 35 -11 15
-23 40 -27 57 -4 16 -18 45 -31 64 -12 19 -23 39 -23 44 0 5 -25 60 -55 121
-54 111 -55 114 -55 203 0 135 -10 129 245 142 116 6 332 14 480 18 l270 8 67
30 c64 29 70 34 103 97 47 89 47 131 -3 215 -29 50 -50 72 -96 100 l-59 37
-362 7 c-396 7 -397 7 -448 68 -27 31 -31 49 -42 155 -3 33 -12 86 -21 117 -8
32 -19 103 -24 158 -5 55 -16 127 -25 159 -8 32 -22 115 -30 185 -8 69 -21
152 -30 185 -8 32 -19 102 -25 156 -12 118 -47 191 -118 251 l-47 39 -230 1
c-126 1 -324 -2 -440 -6z"></path>
</g>
</svg>