 <svg version="1.0" xmlns="http://www.w3.org/2000/svg" width="700.000000pt" height="700.000000pt" viewBox="0 0 700.000000 700.000000" preserveAspectRatio="xMidYMid meet">
<metadata>
Created by potrace 1.12, written by Peter Selinger 2001-2015
</metadata>
<g transform="translate(0.000000,700.000000) scale(0.100000,-0.100000)" fill="#000000" stroke="none">
<path d="M2610 6558 c-24 -6 -63 -23 -86 -39 -46 -32 -128 -119 -149 -159 -51
-98 -76 -460 -51 -750 8 -96 18 -263 22 -370 6 -179 5 -197 -11 -213 -9 -10
-25 -15 -34 -12 -10 3 -120 9 -247 14 -174 8 -247 15 -304 30 -41 11 -119 25
-173 31 -55 5 -107 15 -117 20 -10 6 -49 17 -87 25 -37 9 -90 24 -118 35 -27
10 -77 25 -110 33 -76 19 -166 51 -229 83 -28 13 -56 24 -64 24 -8 0 -26 9
-41 19 -15 11 -40 23 -57 27 -16 3 -47 17 -69 29 -22 12 -59 26 -83 30 -24 4
-68 16 -97 26 -74 26 -101 24 -210 -12 -88 -29 -98 -35 -163 -103 -58 -59 -71
-79 -77 -116 -9 -56 -21 -80 -40 -80 -22 0 -22 -929 0 -963 9 -14 18 -73 25
-162 20 -270 30 -360 45 -409 8 -26 17 -85 21 -130 3 -44 14 -118 25 -164 10
-46 24 -124 29 -174 6 -50 19 -111 30 -135 10 -23 22 -64 26 -90 3 -27 17 -73
29 -103 12 -30 26 -77 30 -105 4 -27 14 -63 22 -78 8 -16 21 -59 29 -96 7 -38
23 -88 34 -112 11 -24 20 -53 20 -64 0 -11 11 -42 24 -70 52 -108 86 -184 86
-192 0 -4 11 -30 24 -58 50 -104 84 -181 95 -217 7 -21 16 -40 21 -43 5 -3 14
-21 20 -40 6 -19 41 -83 77 -142 36 -59 73 -121 82 -137 29 -51 84 -131 93
-134 5 -2 15 -17 24 -34 67 -129 431 -501 559 -572 17 -9 50 -32 75 -51 25
-19 52 -38 60 -41 19 -8 149 -69 215 -100 28 -13 58 -24 68 -24 9 0 49 -11 88
-25 153 -53 563 -53 706 1 35 13 73 24 85 24 11 0 51 14 87 31 36 18 91 44
121 58 30 14 73 38 95 52 22 14 67 43 100 64 148 94 386 323 504 485 51 70 70
95 102 134 14 17 34 45 43 61 9 17 36 62 61 100 24 39 44 73 45 76 1 16 83
129 93 129 19 0 137 -40 196 -67 29 -13 95 -30 147 -38 52 -8 122 -19 155 -26
78 -15 317 -6 376 15 23 8 63 18 90 21 53 8 150 42 228 80 28 14 66 31 85 40
45 20 83 43 210 128 112 76 272 221 387 352 113 129 333 439 333 469 0 5 8 18
18 29 9 10 26 36 37 57 50 95 105 208 105 214 0 7 36 87 86 191 13 28 24 56
24 63 0 6 11 33 25 59 43 84 83 177 90 212 4 18 15 52 25 75 10 22 21 63 25
91 4 27 14 63 22 78 8 16 21 60 29 99 8 39 21 82 28 97 8 14 20 55 26 91 7 36
21 81 31 101 9 19 22 79 28 132 6 53 18 121 26 153 8 31 19 102 25 158 6 55
17 126 25 156 15 56 27 164 45 414 6 93 15 147 25 162 13 20 15 90 15 488 l0
465 -24 24 c-14 14 -26 41 -30 69 -6 38 -16 55 -69 107 -87 86 -124 109 -192
122 -89 17 -237 4 -300 -25 -27 -13 -61 -27 -74 -31 -14 -4 -45 -18 -69 -31
-25 -13 -52 -24 -61 -24 -9 0 -27 -7 -39 -16 -12 -8 -46 -23 -76 -34 -30 -10
-65 -25 -78 -34 -12 -8 -43 -18 -68 -22 -25 -4 -71 -17 -102 -30 -32 -13 -66
-24 -77 -24 -12 0 -50 -11 -85 -24 -36 -14 -100 -30 -142 -35 -42 -6 -99 -18
-128 -26 -28 -8 -89 -19 -136 -24 -47 -6 -143 -17 -215 -26 -193 -23 -421 -29
-580 -16 -176 14 -378 38 -475 58 -41 8 -120 22 -175 32 -55 10 -116 25 -135
34 -19 8 -62 20 -95 27 -33 7 -76 20 -95 30 -19 9 -55 20 -78 24 -24 4 -60 15
-80 25 -21 10 -55 24 -77 31 -22 7 -52 21 -67 31 -14 11 -32 19 -40 19 -7 0
-40 14 -73 30 -33 16 -67 30 -75 30 -8 0 -30 9 -47 20 -60 36 -231 51 -333 28z
m265 -350 c39 -16 91 -40 118 -54 26 -13 53 -24 61 -24 7 0 34 -11 59 -24 25
-14 68 -32 95 -40 27 -8 62 -21 78 -29 16 -8 50 -18 77 -21 26 -4 67 -16 92
-27 24 -11 70 -24 102 -30 32 -6 70 -17 85 -25 15 -8 73 -20 130 -28 57 -8
130 -22 162 -30 54 -14 262 -38 586 -67 69 -6 161 -8 205 -4 310 25 609 57
655 70 30 8 103 22 162 30 59 7 121 21 138 30 17 9 56 21 88 26 31 6 69 17 84
25 15 8 51 19 80 24 58 12 157 47 259 91 36 16 71 29 78 29 7 0 25 8 39 19 15
10 38 22 52 26 14 4 53 21 88 37 112 54 204 38 218 -39 10 -51 -3 -752 -16
-903 -30 -346 -43 -462 -60 -536 -10 -45 -24 -127 -29 -184 -6 -56 -18 -128
-26 -159 -8 -31 -19 -90 -25 -130 -5 -40 -18 -91 -29 -114 -10 -23 -24 -71
-31 -107 -6 -36 -18 -76 -25 -90 -7 -14 -18 -52 -25 -85 -7 -33 -19 -76 -27
-95 -8 -19 -21 -66 -29 -104 -7 -38 -20 -78 -27 -90 -8 -12 -22 -45 -31 -73
-10 -29 -21 -55 -26 -58 -5 -3 -14 -22 -20 -43 -12 -37 -37 -93 -91 -207 -16
-33 -29 -67 -29 -75 0 -8 -12 -33 -25 -55 -14 -22 -25 -47 -25 -54 0 -8 -11
-31 -23 -50 -13 -20 -50 -76 -82 -126 -32 -49 -71 -109 -87 -132 -15 -23 -28
-46 -28 -51 0 -5 -7 -15 -16 -23 -8 -7 -25 -31 -36 -53 -19 -38 -79 -116 -135
-176 -110 -118 -161 -167 -244 -235 -54 -44 -118 -93 -144 -109 -83 -51 -259
-133 -300 -140 -22 -4 -69 -17 -105 -28 -53 -18 -89 -22 -195 -22 -111 0 -147
4 -245 28 -119 31 -238 79 -247 102 -5 14 38 141 61 177 8 12 17 38 21 57 4
19 16 49 26 66 10 17 24 55 30 85 6 30 20 70 29 90 10 19 23 57 28 85 14 70
55 160 87 194 17 17 53 37 89 48 99 31 114 33 144 19 15 -8 44 -17 65 -21 24
-5 62 -27 107 -64 122 -99 126 -102 165 -102 20 0 49 7 63 16 44 27 100 99 97
126 -1 12 -3 40 -4 60 -1 32 -12 48 -84 121 -68 70 -98 92 -167 125 -52 24
-115 45 -160 53 -41 7 -83 16 -92 21 -10 4 -39 3 -68 -4 -48 -11 -54 -10 -67
8 -17 22 -12 115 12 204 8 30 19 102 25 160 6 58 22 159 35 225 18 95 24 168
29 354 4 128 13 309 21 402 26 289 -1 641 -57 744 -36 67 -155 175 -193 175
-12 0 -42 9 -66 20 -52 23 -116 26 -163 6 -19 -8 -60 -20 -93 -26 -32 -7 -78
-22 -103 -35 -25 -13 -74 -35 -110 -51 -36 -15 -88 -38 -117 -51 -28 -13 -77
-30 -109 -39 -32 -8 -63 -19 -68 -23 -6 -5 -40 -17 -76 -26 -35 -9 -76 -23
-91 -31 -15 -7 -60 -19 -101 -25 -40 -6 -88 -17 -107 -25 -19 -8 -78 -21 -130
-30 -53 -8 -118 -19 -146 -24 -127 -24 -234 -34 -248 -22 -10 9 -16 51 -21
160 -4 81 -14 233 -23 337 -20 246 -14 614 11 664 31 59 88 62 211 9z m-2360
-1103 c28 -12 79 -34 115 -49 36 -15 86 -39 113 -52 26 -13 53 -24 60 -24 6 0
39 -14 72 -30 33 -16 70 -30 82 -30 13 0 51 -11 85 -24 35 -13 90 -31 123 -39
33 -8 80 -22 105 -30 85 -27 225 -57 335 -71 61 -8 122 -19 137 -24 56 -23
247 -34 588 -35 354 -1 513 8 645 38 33 7 96 18 139 24 44 6 108 20 144 31 35
11 78 20 96 20 17 1 56 10 86 21 30 11 88 28 127 38 40 10 79 23 86 30 8 6 38
16 68 21 29 6 70 19 89 29 20 10 51 22 69 26 18 4 49 18 68 31 20 13 43 24 52
24 9 0 38 11 66 24 135 65 165 76 198 76 51 0 76 -39 89 -138 11 -87 3 -641
-12 -792 -5 -52 -14 -174 -20 -270 -5 -96 -17 -204 -25 -240 -8 -36 -21 -122
-30 -191 -8 -70 -19 -139 -25 -154 -6 -15 -17 -69 -25 -120 -9 -51 -22 -112
-30 -135 -8 -23 -20 -72 -26 -108 -10 -60 -31 -137 -76 -272 -8 -25 -24 -76
-35 -115 -11 -38 -24 -74 -28 -80 -5 -5 -16 -39 -25 -75 -9 -36 -22 -74 -29
-85 -7 -11 -19 -38 -26 -60 -7 -22 -24 -60 -37 -84 -12 -24 -23 -51 -23 -60 0
-9 -9 -29 -20 -46 -11 -16 -25 -48 -31 -70 -6 -22 -19 -51 -29 -65 -9 -14 -21
-36 -25 -50 -4 -14 -17 -41 -29 -60 -13 -19 -37 -57 -54 -85 -17 -27 -41 -63
-52 -80 -12 -16 -36 -55 -55 -85 -19 -30 -43 -68 -55 -85 -12 -16 -39 -59 -62
-95 -23 -36 -44 -67 -48 -70 -4 -3 -41 -45 -84 -95 -177 -207 -408 -372 -658
-468 -64 -25 -226 -49 -338 -51 -88 -1 -263 25 -319 48 -31 13 -69 26 -85 30
-17 4 -41 15 -55 25 -14 10 -40 23 -56 28 -46 16 -142 80 -248 166 -84 68
-187 168 -237 228 -19 23 -39 47 -45 53 -26 28 -117 159 -141 201 -9 17 -35
57 -57 90 -22 33 -48 75 -59 93 -10 18 -23 39 -29 45 -22 27 -79 122 -79 134
0 8 -13 39 -30 70 -16 31 -30 64 -30 73 0 10 -9 28 -19 42 -11 13 -23 38 -27
54 -4 16 -20 53 -35 83 -16 30 -29 60 -29 67 0 8 -11 35 -24 61 -46 92 -67
146 -81 214 -8 39 -21 82 -29 97 -8 15 -20 57 -26 92 -6 35 -18 76 -25 91 -8
14 -21 58 -29 97 -8 39 -21 83 -29 99 -8 15 -20 64 -27 108 -6 44 -18 107 -27
140 -8 33 -19 102 -24 153 -5 52 -18 132 -29 179 -37 155 -71 623 -77 1055
l-6 386 23 37 c37 60 68 64 165 20z"></path>
<path d="M5080 4983 c-14 -3 -42 -21 -62 -41 -37 -35 -38 -39 -38 -104 0 -63
4 -75 42 -138 87 -147 237 -250 393 -271 124 -17 257 -4 330 32 33 16 65 29
71 29 15 0 194 169 194 183 0 7 14 32 30 57 25 38 30 55 30 108 0 59 -2 64
-39 101 -29 29 -49 40 -85 45 -84 13 -125 -14 -235 -152 -51 -64 -81 -76 -186
-77 -54 0 -102 5 -120 13 -16 8 -64 53 -105 102 -95 112 -129 129 -220 113z"></path>
<path d="M971 3833 l-43 -43 0 -81 c1 -73 4 -85 25 -108 14 -14 28 -37 32 -51
10 -32 118 -138 170 -167 111 -60 221 -93 315 -93 69 0 239 47 293 81 83 52
207 174 207 204 0 6 11 26 25 45 37 50 36 136 -2 180 -35 42 -96 80 -128 80
-33 0 -99 -46 -145 -100 -82 -96 -107 -118 -159 -138 -29 -12 -73 -22 -98 -22
-55 0 -148 47 -183 92 -14 17 -54 61 -90 97 -64 65 -66 66 -120 66 -51 0 -58
-2 -99 -42z"></path>
<path d="M2723 3840 c-53 -46 -68 -91 -54 -165 14 -75 51 -135 133 -215 116
-114 287 -179 438 -167 84 7 195 41 267 84 79 46 176 149 217 230 56 111 46
163 -43 239 -39 34 -45 36 -87 29 -52 -7 -101 -47 -175 -141 -34 -43 -58 -63
-107 -85 -81 -37 -127 -37 -205 0 -48 22 -76 44 -121 97 -32 38 -65 73 -73 77
-8 5 -18 18 -22 30 -7 18 -16 21 -68 22 -55 1 -64 -2 -100 -35z"></path>
<path d="M1857 1976 c-49 -59 -58 -85 -48 -145 13 -84 111 -181 261 -258 86
-45 235 -67 354 -52 102 12 107 14 186 51 135 65 223 149 259 247 25 70 25 70
4 93 -9 10 -21 28 -27 40 -18 36 -74 68 -120 68 -39 0 -102 -32 -146 -74 -72
-68 -100 -83 -172 -95 -106 -17 -189 2 -260 61 -110 91 -142 108 -200 108 -51
0 -55 -2 -91 -44z"></path>
</g>
</svg>