 <svg version="1.0" xmlns="http://www.w3.org/2000/svg" width="700.000000pt" height="700.000000pt" viewBox="0 0 700.000000 700.000000" preserveAspectRatio="xMidYMid meet">
<metadata>
Created by potrace 1.12, written by Peter Selinger 2001-2015
</metadata>
<g transform="translate(0.000000,700.000000) scale(0.100000,-0.100000)" fill="#000000" stroke="none">
<path d="M610 6654 c-19 -9 -61 -24 -92 -34 -31 -9 -69 -27 -84 -39 -15 -11
-32 -21 -39 -21 -15 0 -137 -99 -181 -145 -35 -39 -114 -154 -114 -167 0 -6
-9 -21 -19 -35 -11 -13 -23 -45 -27 -71 -4 -28 -16 -55 -30 -69 -23 -23 -24
-28 -24 -203 0 -174 1 -180 23 -202 14 -14 27 -42 31 -68 4 -25 14 -56 24 -70
9 -14 25 -42 37 -62 11 -20 32 -54 46 -75 30 -43 183 -193 197 -193 5 0 29
-13 53 -30 24 -16 51 -30 59 -30 8 0 37 -11 63 -25 107 -57 440 -57 560 0 30
14 58 25 63 25 10 0 76 42 144 92 40 29 84 71 139 133 22 25 91 133 91 143 0
4 11 27 24 52 29 57 70 274 63 338 -12 112 -41 240 -63 282 -13 24 -24 49 -24
55 0 10 -36 63 -96 143 -46 60 -200 192 -226 192 -4 0 -24 11 -44 25 -20 14
-45 25 -56 25 -10 0 -45 11 -78 25 -55 23 -71 25 -222 25 -124 -1 -171 -4
-198 -16z"></path>
<path d="M4320 6266 c-14 -8 -55 -22 -90 -31 -36 -9 -70 -21 -76 -26 -6 -5
-30 -16 -55 -24 -85 -30 -180 -84 -307 -175 -19 -14 -51 -36 -72 -50 -21 -14
-55 -37 -76 -51 -70 -47 -383 -370 -414 -428 -11 -20 -36 -56 -55 -81 -53 -69
-146 -210 -172 -260 -13 -25 -27 -52 -32 -60 -6 -8 -16 -28 -24 -45 -8 -16
-28 -55 -44 -85 -74 -137 -109 -213 -119 -255 -4 -16 -15 -40 -24 -52 -10 -13
-21 -40 -25 -60 -4 -21 -15 -52 -26 -69 -10 -17 -24 -55 -30 -85 -6 -30 -18
-66 -25 -81 -8 -15 -21 -60 -29 -99 -9 -40 -20 -78 -25 -84 -5 -7 -17 -45 -26
-86 -9 -41 -22 -84 -30 -96 -7 -12 -18 -43 -24 -69 -15 -64 -22 -71 -88 -84
-31 -6 -79 -20 -107 -30 -27 -11 -72 -22 -100 -26 -27 -3 -70 -15 -94 -25 -24
-11 -73 -24 -110 -30 -36 -5 -84 -18 -107 -28 -23 -11 -66 -22 -95 -26 -30 -4
-69 -13 -88 -21 -74 -31 -122 -11 -161 66 -16 31 -33 81 -39 113 -6 31 -17 70
-25 85 -8 16 -22 61 -30 100 -8 39 -21 84 -30 100 -8 16 -18 49 -22 73 -4 24
-17 69 -29 99 -12 30 -26 77 -30 105 -4 27 -15 65 -25 85 -10 19 -21 55 -25
80 -8 51 -53 144 -85 178 -11 12 -48 36 -81 53 l-61 30 -286 -3 -287 -3 -62
-33 c-35 -18 -63 -36 -63 -40 0 -4 -13 -22 -29 -41 -25 -29 -31 -47 -36 -105
-3 -39 -5 -620 -3 -1291 3 -1360 -3 -1253 74 -1328 21 -21 68 -53 104 -70 l65
-32 560 -5 c633 -6 591 0 640 -87 l25 -46 0 -546 c1 -597 6 -676 45 -723 14
-16 25 -34 25 -38 0 -5 26 -26 57 -46 39 -25 75 -39 117 -45 128 -18 328 -4
363 26 10 8 37 31 60 51 85 72 102 168 92 509 -4 143 -11 514 -14 825 -4 311
-10 598 -15 638 -11 94 -53 163 -131 213 l-54 34 -503 5 c-432 4 -504 7 -512
20 -15 23 -13 216 3 227 6 6 50 13 96 16 56 5 100 14 135 31 28 13 69 27 91
31 22 4 56 15 75 25 19 11 60 26 90 34 74 20 175 54 230 77 25 10 67 23 93 29
27 6 58 17 70 24 12 8 51 21 86 30 36 9 70 21 77 27 7 6 41 17 76 25 35 8 72
21 83 28 11 7 34 17 50 23 47 16 133 84 149 118 43 90 59 146 66 235 4 55 15
110 24 128 9 17 23 64 30 104 8 40 21 89 30 109 8 20 20 65 25 100 6 35 20 82
31 104 11 21 20 48 20 58 0 10 14 49 30 87 17 38 30 76 30 85 0 8 11 37 24 63
13 26 26 60 30 76 4 17 15 41 25 55 10 14 22 37 26 51 4 14 20 52 35 85 15 33
31 67 34 75 3 8 19 38 36 65 16 28 41 70 55 95 14 25 41 70 60 100 19 30 42
69 51 85 30 52 250 320 305 371 19 17 70 61 114 98 44 37 89 75 100 85 42 35
111 78 144 90 19 6 42 17 50 24 9 8 37 21 63 31 25 9 52 23 58 31 17 21 77 30
95 15 19 -16 52 -126 60 -205 4 -32 15 -87 26 -120 10 -33 23 -94 29 -135 6
-41 17 -95 25 -120 8 -25 21 -88 29 -140 8 -52 21 -111 29 -130 8 -19 18 -66
22 -105 4 -38 16 -97 26 -130 10 -33 25 -103 33 -155 8 -53 22 -113 29 -135 8
-22 20 -77 26 -123 7 -46 19 -102 27 -125 8 -23 19 -78 25 -122 5 -44 18 -105
29 -136 10 -31 24 -92 29 -135 5 -44 17 -99 25 -123 9 -24 22 -87 30 -141 8
-53 20 -108 26 -121 6 -13 19 -71 30 -129 23 -124 47 -242 66 -325 8 -33 21
-96 29 -140 9 -44 23 -109 32 -145 8 -36 23 -108 33 -160 10 -52 25 -119 33
-148 9 -29 19 -80 23 -115 4 -34 15 -89 26 -122 10 -33 23 -93 28 -133 6 -41
18 -101 29 -135 10 -34 22 -89 25 -122 4 -33 18 -98 32 -145 13 -46 24 -98 24
-115 0 -16 11 -69 24 -117 13 -48 27 -116 31 -150 4 -34 16 -86 26 -117 25
-71 25 -131 2 -132 -70 -4 -144 24 -233 87 -30 21 -57 41 -60 44 -3 3 -18 14
-33 23 -16 10 -36 25 -45 33 -83 74 -223 118 -377 118 -89 1 -122 -3 -173 -22
-34 -12 -68 -22 -75 -22 -7 0 -40 -18 -73 -40 -32 -22 -82 -55 -110 -74 -28
-18 -66 -47 -85 -64 -19 -16 -63 -42 -99 -58 -125 -54 -263 -28 -387 73 -25
21 -61 47 -79 58 -18 11 -59 38 -90 60 -66 45 -175 81 -274 91 -60 5 -70 3
-121 -25 -47 -26 -58 -37 -68 -72 -12 -40 -8 -122 8 -147 14 -23 117 -69 170
-76 68 -9 172 -63 256 -133 11 -10 58 -42 105 -73 88 -57 184 -89 318 -106 72
-8 284 39 325 73 16 13 32 23 36 23 4 0 42 26 84 57 115 87 125 93 186 127 51
28 64 31 146 31 83 0 95 -3 158 -35 37 -19 67 -37 67 -41 0 -4 15 -16 33 -28
17 -11 55 -36 82 -55 28 -20 73 -50 100 -69 65 -42 215 -82 310 -81 94 0 262
40 298 71 16 12 32 23 36 23 5 0 24 12 44 28 20 15 52 38 72 52 20 14 53 38
73 54 74 57 139 80 232 80 76 0 92 -4 149 -32 36 -18 74 -40 85 -50 12 -10 34
-27 50 -38 16 -10 41 -28 56 -39 111 -81 148 -100 255 -127 60 -15 120 -28
132 -28 30 0 102 38 146 77 34 30 37 37 37 85 -1 52 -2 54 -56 100 -35 31 -67
49 -92 53 -61 10 -168 45 -198 66 -16 11 -47 33 -69 49 -41 32 -198 140 -219
151 -6 4 -49 17 -96 30 -117 33 -268 33 -358 1 -34 -12 -71 -22 -81 -22 -10 0
-24 -7 -32 -16 -7 -8 -29 -24 -48 -35 -20 -11 -52 -32 -72 -47 -106 -81 -124
-92 -141 -92 -28 0 -54 68 -72 188 -9 56 -20 111 -26 122 -6 11 -17 62 -25
114 -7 52 -21 116 -30 142 -9 26 -21 84 -26 127 -6 44 -17 96 -25 115 -8 20
-21 81 -29 136 -8 56 -21 120 -29 143 -8 24 -20 79 -26 123 -6 44 -18 99 -25
121 -8 23 -22 86 -31 141 -8 55 -22 114 -29 131 -7 18 -16 59 -20 92 -4 33
-17 101 -30 150 -13 50 -26 115 -30 145 -3 30 -15 82 -25 115 -11 33 -24 96
-30 139 -6 44 -19 107 -29 140 -10 34 -21 88 -25 121 -4 33 -16 87 -26 120
-11 33 -24 94 -29 135 -6 41 -17 95 -26 120 -9 25 -20 79 -26 120 -5 41 -18
104 -29 140 -10 36 -24 99 -29 140 -6 41 -17 95 -26 120 -9 25 -20 79 -26 120
-5 41 -18 104 -29 140 -10 36 -24 99 -29 140 -6 41 -17 95 -26 120 -9 25 -20
80 -26 122 -5 42 -16 96 -25 120 -8 24 -22 87 -30 142 -8 54 -21 114 -29 133
-8 19 -19 73 -25 120 -6 47 -20 111 -30 142 -11 31 -21 84 -22 119 -3 57 -1
64 23 85 20 16 28 35 33 69 7 60 -9 104 -52 145 -27 26 -45 33 -90 38 -40 4
-65 1 -82 -9z"></path>
<path d="M484 1699 c-31 -7 -56 -24 -95 -64 -45 -46 -55 -63 -61 -102 -8 -62
-10 -902 -2 -971 6 -46 13 -59 63 -111 32 -33 70 -63 87 -68 38 -10 927 -11
977 0 62 13 121 76 149 155 23 66 23 73 23 512 l0 445 -25 61 c-33 80 -89 131
-160 144 -66 13 -900 11 -956 -1z"></path>
</g>
</svg>