 <svg version="1.0" xmlns="http://www.w3.org/2000/svg" width="700.000000pt" height="700.000000pt" viewBox="0 0 700.000000 700.000000" preserveAspectRatio="xMidYMid meet">
<metadata>
Created by potrace 1.12, written by Peter Selinger 2001-2015
</metadata>
<g transform="translate(0.000000,700.000000) scale(0.100000,-0.100000)" fill="#000000" stroke="none">
<path d="M660 6883 c-4 -75 1 -637 5 -643 9 -15 21 -12 60 14 20 14 57 28 83
32 113 16 132 43 132 191 0 101 2 113 19 123 14 7 926 10 2875 10 l2855 0 15
-22 c14 -20 16 -209 16 -1814 0 -1749 0 -1792 -19 -1815 l-19 -24 -2264 -2
-2263 -2 -17 -28 c-26 -41 -26 -222 0 -249 16 -18 89 -19 2440 -16 l2422 2 0
2125 0 2125 -3170 0 c-1743 0 -3170 -3 -3170 -7z"></path>
<path d="M965 6154 c-27 -8 -75 -19 -105 -25 -30 -7 -59 -15 -65 -19 -5 -4
-45 -26 -87 -48 -43 -22 -103 -62 -134 -89 -64 -55 -194 -207 -194 -228 0 -7
-11 -26 -24 -42 -13 -15 -26 -46 -30 -68 -4 -21 -17 -57 -29 -80 -20 -37 -22
-54 -22 -235 0 -191 1 -196 27 -257 16 -34 28 -69 28 -76 0 -17 57 -116 101
-175 66 -89 213 -222 244 -222 6 0 26 -11 44 -24 19 -14 48 -28 65 -32 17 -3
48 -15 68 -25 52 -26 244 -42 373 -30 106 10 202 41 315 104 71 40 181 131
222 187 63 83 98 135 98 145 0 6 11 27 25 47 14 20 25 44 25 53 0 8 11 48 25
87 46 131 43 315 -6 458 -29 85 -86 205 -104 220 -8 7 -15 19 -15 26 0 17
-175 192 -216 216 -16 10 -51 29 -79 42 -27 14 -61 32 -75 40 -14 8 -75 26
-136 40 -126 30 -258 34 -339 10z"></path>
<path d="M4809 5834 c-8 -9 -32 -25 -55 -35 -23 -9 -45 -22 -48 -28 -4 -6 -26
-20 -49 -31 -23 -11 -64 -34 -92 -50 -27 -16 -69 -39 -92 -50 -23 -11 -45 -25
-48 -30 -3 -5 -27 -20 -53 -33 -64 -33 -125 -66 -207 -116 -39 -24 -83 -49
-100 -57 -16 -8 -55 -30 -85 -49 -30 -18 -73 -43 -95 -55 -22 -11 -61 -33 -86
-48 -26 -15 -70 -40 -99 -57 -29 -16 -73 -42 -99 -57 -25 -15 -62 -35 -81 -45
-19 -10 -48 -28 -63 -40 -16 -13 -34 -23 -41 -23 -7 0 -27 -11 -46 -25 -44
-32 -73 -32 -98 2 l-19 26 -39 -21 c-44 -24 -207 -108 -262 -135 -21 -10 -44
-22 -52 -27 -8 -5 -62 -34 -120 -63 -58 -30 -154 -80 -215 -112 -217 -113
-327 -170 -353 -183 -15 -7 -38 -19 -52 -26 -14 -8 -79 -42 -145 -75 l-120
-61 -225 0 c-197 0 -228 -2 -252 -18 -15 -9 -72 -70 -126 -134 -146 -172 -162
-188 -194 -188 -17 0 -35 9 -46 21 -9 12 -24 29 -33 38 -8 9 -38 45 -65 80
-27 35 -62 78 -78 95 -16 17 -40 46 -55 65 l-25 34 -86 -6 c-47 -4 -107 -13
-135 -22 -27 -9 -97 -22 -155 -30 -58 -8 -132 -21 -165 -30 -33 -8 -76 -17
-95 -20 -19 -3 -40 -9 -47 -13 -27 -17 -75 -1490 -50 -1521 9 -11 32 -12 112
-7 113 8 151 -1 160 -36 3 -13 9 -75 14 -139 6 -97 11 -121 29 -144 l22 -28 0
-903 -1 -903 -22 -16 c-12 -8 -34 -15 -48 -15 -15 0 -56 -9 -91 -20 -34 -11
-102 -25 -150 -32 l-88 -12 0 -158 0 -158 188 0 c131 1 206 5 252 16 119 28
165 29 198 5 28 -19 43 -21 194 -21 89 0 168 4 174 8 16 10 27 49 15 56 -12 8
-14 1738 -2 1790 5 21 16 43 23 47 7 5 43 9 79 9 113 0 101 106 100 -934 0
-499 -4 -918 -7 -931 -10 -38 19 -45 199 -45 152 0 166 2 191 21 30 24 66 23
201 -5 61 -12 123 -16 255 -14 l175 3 3 149 c1 82 -1 153 -5 157 -5 4 -44 12
-88 18 -44 6 -106 19 -137 31 -32 11 -72 20 -91 20 -18 0 -42 7 -53 15 -21 14
-21 15 -23 917 -2 861 -1 905 16 920 10 8 24 17 32 20 11 3 15 35 18 154 6
281 24 703 33 786 5 46 15 189 21 318 6 129 15 247 21 262 7 20 35 40 113 80
57 29 152 79 212 110 59 31 124 64 143 73 19 8 44 21 55 27 22 13 180 96 340
177 55 29 107 56 115 61 8 5 31 16 50 25 19 8 46 22 60 30 14 9 36 20 50 26
14 6 52 26 85 44 33 19 80 43 104 55 24 11 56 29 71 40 16 11 35 20 44 20 28
0 32 31 6 52 -25 21 -61 113 -53 135 3 8 23 24 45 36 22 12 61 34 87 49 25 15
62 35 81 45 19 10 48 27 63 37 28 19 49 31 137 79 42 23 95 53 208 119 26 15
67 39 92 53 25 14 68 39 95 55 28 16 64 36 80 45 17 8 59 33 95 55 36 22 83
49 105 60 22 12 63 34 90 50 28 16 72 42 99 57 26 15 69 40 95 55 25 15 70 39
99 53 81 41 93 81 39 133 -37 36 -58 40 -78 16z"></path>
<path d="M5312 3585 c-13 -20 -14 -385 -2 -401 11 -12 92 -14 544 -14 550 0
588 3 577 41 -2 8 -5 82 -7 164 -3 188 -2 177 -19 199 -13 17 -40 18 -550 20
-349 0 -539 -3 -543 -9z"></path>
</g>
</svg>