 <svg version="1.0" xmlns="http://www.w3.org/2000/svg" width="700.000000pt" height="700.000000pt" viewBox="0 0 700.000000 700.000000" preserveAspectRatio="xMidYMid meet">
<metadata>
Created by potrace 1.12, written by Peter Selinger 2001-2015
</metadata>
<g transform="translate(0.000000,700.000000) scale(0.100000,-0.100000)" fill="#000000" stroke="none">
<path d="M2315 5988 c-80 -28 -162 -77 -214 -128 -54 -54 -121 -164 -121 -201
0 -10 -4 -21 -10 -24 -14 -9 -13 -210 1 -254 39 -123 145 -253 244 -300 28
-13 57 -27 66 -31 9 -5 50 -14 92 -21 63 -11 88 -10 144 1 37 7 75 16 83 20 8
4 40 19 71 34 94 44 195 163 236 276 18 50 26 187 14 240 -6 25 -13 59 -17 75
-11 45 -70 133 -130 192 -51 50 -129 94 -215 121 -43 14 -202 14 -244 0z"></path>
<path d="M5660 5982 c-39 -26 -55 -51 -69 -101 -7 -25 -17 -64 -23 -86 -6 -22
-14 -51 -18 -65 -4 -14 -13 -45 -20 -70 -6 -25 -16 -53 -21 -62 -5 -10 -9 -27
-9 -37 0 -11 -4 -30 -9 -43 -8 -22 -15 -45 -41 -138 -7 -25 -16 -56 -20 -70
-4 -14 -13 -45 -20 -70 -6 -25 -18 -60 -26 -78 -8 -18 -14 -42 -14 -52 0 -11
-4 -28 -9 -38 -5 -9 -14 -35 -19 -57 -26 -100 -52 -192 -63 -220 -4 -11 -10
-31 -13 -45 -2 -14 -9 -42 -15 -62 -6 -21 -16 -55 -22 -75 -5 -21 -14 -51 -19
-68 -5 -16 -14 -47 -19 -67 -65 -229 -62 -216 -47 -253 19 -45 54 -66 123 -72
60 -6 133 12 182 44 20 13 25 13 32 2 5 -8 7 -20 4 -27 -3 -8 -5 -58 -5 -113
l0 -99 -344 0 -344 0 -31 -29 c-17 -16 -31 -38 -31 -48 0 -10 -5 -24 -12 -31
-8 -8 -8 -15 1 -26 7 -8 11 -24 9 -36 -3 -21 -5 -21 -332 -21 -181 0 -330 2
-332 4 -2 2 20 28 50 59 59 61 73 107 60 195 -6 40 -16 56 -63 104 -45 45 -64
57 -100 63 -25 4 -225 4 -446 0 -402 -7 -403 -7 -433 14 -16 12 -33 22 -37 22
-3 0 -26 14 -50 30 -24 17 -46 30 -49 30 -4 0 -36 18 -72 40 -36 22 -69 40
-72 40 -3 0 -13 6 -21 14 -15 13 -40 28 -141 84 -88 48 -143 86 -130 90 16 6
121 -18 134 -30 6 -4 22 -8 36 -8 14 0 31 -5 37 -11 29 -29 56 17 34 59 -5 9
-17 34 -25 54 -24 53 -60 93 -114 123 -46 26 -54 27 -292 37 -283 12 -402 2
-476 -39 -50 -28 -90 -72 -111 -123 -9 -19 -19 -43 -24 -52 -15 -29 -11 -1610
4 -1661 8 -29 32 -63 78 -109 37 -37 64 -70 61 -73 -3 -3 -69 -5 -147 -5 -114
0 -145 3 -155 15 -7 8 -16 56 -21 107 -5 51 -13 134 -19 183 -6 50 -15 128
-20 175 -5 47 -14 123 -19 170 -6 47 -15 126 -21 175 -5 50 -14 126 -19 170
-6 44 -15 123 -20 175 -12 106 -26 227 -41 355 -6 47 -14 122 -20 168 -9 79
-31 252 -49 385 -7 49 -16 71 -38 94 -48 51 -160 88 -178 58 -3 -5 -14 -10
-24 -10 -19 0 -80 -62 -100 -102 -14 -28 -13 -66 9 -248 5 -47 14 -125 20
-175 19 -168 29 -260 40 -350 10 -87 17 -144 40 -359 6 -55 14 -104 17 -109 3
-5 9 -50 14 -101 5 -50 13 -129 19 -176 10 -83 19 -163 41 -352 5 -51 14 -129
19 -173 5 -44 14 -118 19 -165 14 -124 21 -151 48 -188 50 -67 50 -66 348 -72
l270 -5 0 -305 0 -305 -210 -5 c-125 -3 -220 -10 -235 -16 -61 -28 -108 -123
-137 -274 -2 -14 -8 -34 -13 -45 -5 -11 -11 -31 -14 -45 -2 -14 -10 -43 -16
-65 -7 -22 -14 -55 -17 -73 -3 -18 -9 -35 -14 -38 -13 -8 -11 -60 5 -98 7 -18
31 -47 52 -64 52 -43 120 -45 178 -4 38 27 50 49 76 142 14 51 20 72 53 185
l24 80 423 3 c394 2 424 1 436 -15 7 -10 14 -28 14 -40 0 -12 4 -32 9 -45 5
-13 14 -42 20 -65 28 -108 34 -130 44 -158 27 -77 78 -115 156 -115 37 0 54 6
83 30 63 52 80 106 57 179 -27 84 -37 119 -49 161 -7 25 -16 56 -20 70 -4 14
-12 43 -18 65 -44 169 -71 212 -140 233 -24 8 -114 12 -236 12 l-196 0 2 308
3 307 262 5 c244 5 263 6 289 26 52 39 68 70 72 142 4 62 2 71 -22 99 -14 17
-26 36 -26 42 0 14 196 15 205 2 3 -6 5 -334 5 -730 0 -438 3 -728 9 -738 6
-10 12 -30 15 -45 3 -14 21 -45 38 -68 29 -37 48 -50 130 -91 33 -17 134 -10
185 12 75 32 143 108 143 160 0 10 5 21 10 24 7 4 10 314 10 898 0 929 0 914
-42 992 -28 52 -109 115 -147 115 -11 0 -23 5 -26 10 -5 7 -93 11 -258 10
-139 -1 -258 -1 -264 0 -10 0 -13 48 -13 208 l0 207 -255 262 c-140 144 -255
265 -255 268 0 8 42 -15 149 -80 83 -50 133 -80 186 -109 20 -11 205 -122 273
-164 119 -72 117 -72 342 -72 114 0 210 -3 213 -7 4 -3 -1 -15 -10 -26 -15
-16 -18 -36 -15 -122 1 -61 8 -118 17 -138 22 -54 89 -130 131 -151 21 -10 47
-22 56 -27 10 -5 458 -9 1027 -9 911 0 1009 -2 1015 -16 3 -9 6 -435 6 -948 0
-712 -3 -935 -12 -944 -9 -9 -115 -12 -415 -12 -377 0 -406 -1 -441 -19 -64
-33 -92 -79 -92 -154 0 -69 21 -110 75 -147 l44 -30 523 0 c495 0 526 1 564
19 21 11 47 27 56 38 44 48 43 26 48 1143 l5 1065 35 6 c58 10 123 45 166 91
38 41 46 54 73 121 18 46 14 203 -6 234 -32 49 -60 53 -349 53 -250 0 -266 1
-258 18 5 9 11 260 14 557 3 375 9 548 16 565 7 14 17 45 24 70 7 25 16 56 20
70 4 14 13 45 20 70 7 25 16 56 20 70 4 14 13 43 19 65 22 79 43 150 51 170 4
11 13 40 20 65 6 25 16 59 21 76 5 17 9 40 9 52 0 11 5 24 10 27 15 9 12 84
-6 134 -36 104 -87 162 -179 201 -56 24 -72 24 -105 2z"></path>
<path d="M1080 5894 c-19 -13 -45 -42 -57 -64 -22 -39 -23 -49 -23 -304 0
-281 2 -297 52 -344 30 -27 89 -52 127 -52 62 0 126 42 156 104 21 42 22 537
1 587 -27 65 -84 99 -163 99 -45 -1 -66 -7 -93 -26z"></path>
</g>
</svg>