 <svg version="1.0" xmlns="http://www.w3.org/2000/svg" width="700.000000pt" height="700.000000pt" viewBox="0 0 700.000000 700.000000" preserveAspectRatio="xMidYMid meet">
<metadata>
Created by potrace 1.12, written by Peter Selinger 2001-2015
</metadata>
<g transform="translate(0.000000,700.000000) scale(0.100000,-0.100000)" fill="#000000" stroke="none">
<path d="M3300 6960 c-227 -14 -348 -27 -440 -49 -47 -12 -97 -21 -112 -21
-31 0 -198 -51 -279 -86 -31 -13 -65 -24 -75 -24 -11 0 -42 -11 -69 -24 -28
-12 -68 -26 -90 -30 -22 -4 -53 -16 -70 -26 -16 -10 -47 -21 -68 -25 -20 -4
-47 -15 -60 -25 -12 -10 -38 -25 -57 -34 -19 -9 -62 -32 -95 -51 -33 -19 -78
-44 -100 -55 -22 -12 -67 -37 -100 -55 -33 -19 -77 -43 -98 -53 -21 -10 -45
-27 -55 -36 -17 -17 -111 -91 -198 -158 -61 -46 -88 -69 -138 -113 -21 -19
-42 -35 -47 -35 -7 0 -136 -138 -304 -325 -44 -49 -87 -96 -95 -105 -52 -56
-165 -216 -210 -297 -11 -21 -45 -83 -75 -138 -30 -55 -66 -122 -81 -150 -14
-27 -41 -79 -60 -115 -20 -36 -42 -87 -50 -115 -7 -27 -23 -68 -34 -90 -11
-21 -20 -49 -20 -60 0 -11 -9 -39 -20 -60 -12 -22 -26 -60 -32 -85 -6 -25 -19
-62 -30 -83 -10 -20 -23 -74 -29 -120 -6 -45 -19 -109 -29 -142 -9 -33 -21
-96 -25 -140 -7 -83 -26 -145 -44 -145 -8 0 -11 -129 -11 -405 0 -388 1 -407
20 -433 14 -19 23 -57 31 -127 6 -55 22 -133 35 -173 13 -40 24 -84 24 -98 0
-13 9 -53 21 -87 11 -34 27 -94 35 -134 7 -40 23 -89 34 -110 11 -21 20 -45
20 -53 0 -8 11 -33 25 -55 13 -22 25 -47 25 -55 0 -8 14 -42 30 -75 16 -33 30
-66 30 -74 0 -7 11 -34 24 -60 13 -25 31 -62 40 -81 9 -19 26 -51 39 -71 12
-19 31 -50 42 -68 21 -35 63 -103 100 -161 12 -19 36 -57 53 -85 32 -51 86
-125 112 -154 8 -9 44 -50 80 -91 35 -41 74 -86 87 -100 12 -14 43 -50 70 -80
63 -72 97 -102 293 -265 219 -183 218 -181 275 -217 28 -17 69 -44 92 -59 23
-16 43 -29 46 -29 3 0 34 -18 68 -40 35 -22 107 -60 159 -85 52 -26 102 -50
110 -56 8 -5 31 -16 50 -25 19 -9 58 -27 85 -40 28 -13 59 -24 71 -24 11 0 38
-9 59 -20 22 -11 66 -27 99 -36 32 -8 68 -21 80 -29 11 -7 50 -19 86 -25 36
-6 83 -18 105 -26 22 -8 92 -23 155 -33 100 -17 123 -18 176 -7 69 14 73 17
130 63 41 33 65 82 93 190 10 35 9 46 -8 75 -10 18 -22 44 -26 58 -8 26 -70
102 -89 109 -6 2 -40 16 -76 31 -36 15 -89 31 -119 34 -30 4 -70 14 -90 22
-20 9 -71 22 -113 29 -42 8 -95 23 -117 34 -22 12 -46 21 -54 21 -8 0 -34 11
-59 24 -25 13 -59 27 -77 31 -32 7 -151 57 -181 76 -8 5 -37 21 -65 34 -51 26
-201 116 -221 133 -6 6 -26 18 -45 27 -32 17 -64 39 -119 85 -14 11 -55 43
-93 71 -134 100 -346 317 -478 489 -10 14 -31 40 -47 59 -15 19 -36 49 -47 67
-11 18 -36 56 -56 86 -20 29 -43 65 -50 79 -17 31 -75 138 -88 159 -25 42 -69
139 -75 165 -4 17 -14 37 -22 46 -14 16 -41 95 -71 214 -9 33 -26 94 -39 135
-13 41 -26 93 -30 115 -4 22 -16 63 -27 90 -14 38 -21 89 -27 207 -5 87 -16
220 -25 297 -16 129 -16 149 0 287 35 322 43 381 58 421 9 23 19 63 23 90 4
26 18 76 30 111 13 34 24 71 24 81 0 9 11 39 24 65 13 26 27 64 31 84 4 20 15
52 25 71 10 20 51 101 90 181 76 152 106 207 131 237 8 10 34 50 57 88 23 39
61 91 84 117 24 26 57 64 74 85 122 147 212 250 238 273 69 61 197 160 206
160 6 0 10 4 10 9 0 11 169 151 182 151 5 0 24 10 41 22 34 24 69 45 127 75
19 9 48 28 63 40 16 13 34 23 41 23 7 0 27 11 45 24 19 14 48 28 65 31 17 4
42 14 54 22 13 8 47 23 75 33 56 19 136 51 205 81 23 10 61 21 85 25 23 3 80
16 127 29 85 23 193 47 305 68 37 7 204 11 435 11 329 -1 381 -3 420 -18 24
-9 86 -23 137 -32 51 -8 105 -19 120 -25 15 -6 58 -17 95 -25 38 -7 85 -22
106 -33 20 -10 53 -22 72 -26 19 -4 49 -15 65 -25 17 -10 53 -24 80 -31 28 -7
62 -20 77 -31 14 -10 33 -18 41 -18 8 0 29 -10 48 -23 19 -12 52 -32 74 -43
22 -12 63 -34 90 -49 28 -16 65 -36 83 -46 51 -27 62 -39 62 -68 0 -25 -7 -38
-62 -117 -15 -22 -50 -73 -77 -114 -27 -41 -59 -87 -71 -103 -30 -38 -17 -76
34 -93 45 -16 331 -3 486 21 52 9 192 20 310 26 194 10 220 14 262 35 26 13
54 24 62 24 44 0 45 195 2 322 -13 40 -29 97 -35 126 -6 30 -16 62 -22 73 -5
11 -18 56 -29 102 -10 45 -25 102 -34 127 -8 25 -22 72 -30 105 -49 200 -62
238 -94 276 -44 53 -108 29 -170 -64 -15 -22 -38 -57 -52 -77 -122 -182 -135
-192 -201 -147 -19 12 -45 28 -59 35 -14 7 -50 28 -80 47 -30 19 -75 44 -100
56 -25 12 -52 27 -60 34 -8 7 -33 18 -55 25 -22 7 -51 21 -64 31 -13 11 -29
19 -36 19 -7 0 -32 10 -56 23 -24 13 -65 29 -91 35 -27 7 -63 21 -80 32 -18
11 -42 20 -53 20 -11 0 -44 11 -73 25 -29 13 -76 27 -105 31 -29 4 -73 15
-100 25 -26 11 -80 24 -120 30 -39 6 -110 20 -156 30 -140 32 -557 53 -791 39z"></path>
<path d="M3216 5709 c-26 -17 -59 -47 -74 -67 l-27 -35 0 -1181 0 -1180 50
-27 c28 -15 61 -32 75 -38 14 -6 36 -17 50 -26 14 -8 41 -22 60 -30 19 -9 42
-20 50 -25 16 -10 100 -55 160 -84 19 -10 42 -21 50 -26 8 -5 60 -32 115 -60
55 -28 118 -60 140 -71 22 -11 51 -27 65 -35 14 -8 70 -37 125 -65 55 -28 111
-57 125 -64 14 -8 37 -20 51 -27 45 -23 230 -117 349 -180 63 -33 129 -67 145
-75 17 -8 37 -18 45 -23 8 -5 62 -34 120 -63 58 -30 141 -73 184 -96 44 -23
108 -48 143 -56 122 -29 221 23 271 142 12 28 22 59 22 68 0 22 -48 125 -68
149 -24 26 -116 84 -147 92 -14 3 -28 10 -31 15 -3 5 -55 34 -117 65 -62 31
-161 82 -222 114 -60 32 -126 65 -145 74 -19 9 -42 20 -50 26 -8 5 -60 32
-115 60 -55 27 -111 56 -125 64 -14 8 -38 21 -55 29 -16 8 -79 40 -140 72 -60
31 -123 64 -140 72 -16 7 -41 20 -55 28 -24 14 -95 51 -155 81 -16 8 -41 21
-55 29 -14 8 -41 22 -60 30 -19 9 -42 20 -50 25 -8 5 -56 30 -107 55 -50 26
-98 54 -105 62 -10 13 -14 216 -18 1042 l-5 1027 -22 28 c-13 16 -23 35 -23
43 0 7 -8 17 -17 20 -10 4 -33 17 -52 30 -27 18 -47 23 -101 23 -58 0 -73 -4
-114 -31z"></path>
<path d="M6397 4926 c-71 -20 -152 -102 -167 -168 -19 -90 -3 -237 32 -290 9
-13 19 -38 22 -55 4 -18 21 -50 37 -72 16 -23 29 -45 29 -49 0 -5 33 -26 73
-47 70 -35 78 -37 148 -33 67 4 80 8 135 45 47 32 67 54 93 103 32 59 33 67
29 144 -3 52 -10 90 -21 106 -9 14 -20 45 -26 70 -22 96 -96 196 -178 239 -35
18 -153 22 -206 7z"></path>
<path d="M6595 3845 c-64 -37 -107 -80 -131 -132 -20 -45 -29 -241 -15 -337
10 -69 17 -87 52 -134 26 -34 55 -59 78 -68 20 -8 52 -24 72 -34 53 -29 106
-25 175 11 70 37 108 71 124 110 7 16 21 31 31 34 18 6 19 19 19 206 0 169 -2
199 -15 199 -8 0 -23 17 -34 38 -25 48 -52 73 -125 111 -83 44 -149 42 -231
-4z"></path>
<path d="M6461 2769 c-81 -42 -151 -129 -173 -217 -6 -26 -20 -65 -32 -87 -16
-32 -21 -59 -21 -135 0 -106 3 -113 89 -201 46 -48 67 -57 155 -65 103 -10
167 12 226 78 53 59 69 88 80 138 4 19 17 51 28 70 19 31 22 50 22 157 0 118
-1 123 -26 150 -15 15 -32 38 -38 51 -6 12 -18 22 -26 22 -7 0 -28 12 -46 28
-29 24 -42 27 -113 30 -68 3 -88 -1 -125 -19z"></path>
<path d="M5979 1800 c-65 -19 -155 -109 -247 -244 l-47 -70 0 -100 0 -101 44
-58 c52 -67 137 -115 211 -117 56 -2 153 36 197 77 45 42 142 162 178 220 27
44 30 56 30 133 -1 62 -6 94 -19 119 -25 46 -100 120 -141 137 -37 15 -162 18
-206 4z"></path>
<path d="M5190 1050 c-53 -17 -129 -59 -197 -107 -17 -13 -34 -23 -38 -23 -20
0 -83 -84 -95 -125 -7 -25 -17 -48 -21 -51 -15 -9 -10 -78 11 -140 13 -38 36
-76 64 -106 37 -40 54 -50 112 -64 59 -15 77 -16 143 -5 44 7 91 22 111 35 19
13 62 40 95 61 100 64 128 93 152 159 29 78 29 129 0 209 -29 80 -80 130 -157
153 -81 24 -119 25 -180 4z"></path>
<path d="M4125 605 c-132 -22 -229 -76 -278 -155 -29 -47 -40 -135 -26 -209
11 -61 16 -70 71 -123 54 -52 64 -57 127 -68 56 -11 87 -10 182 3 164 22 242
61 305 152 35 52 37 58 37 137 0 101 -15 138 -77 202 -73 76 -155 90 -341 61z"></path>
</g>
</svg>