<?xml version="1.0" encoding="utf-8"?>
<!-- Generator: Adobe Illustrator 19.0.0, SVG Export Plug-In . SVG Version: 6.00 Build 0)  -->
<svg version="1.1" id="Layer_1" xmlns="http://www.w3.org/2000/svg" xmlns:xlink="http://www.w3.org/1999/xlink" x="0px" y="0px"
	 viewBox="44 47 700 700" style="enable-background:new 44 47 700 700;" xml:space="preserve">
<style type="text/css">
	.st0{fill:#FFFFFF;}
</style>
<g transform="translate(0.000000,700.000000) scale(0.100000,-0.100000)">
	<path class="st0" d="M3756,6118c-9-13-23-74-31-134s-22-125-29-144c-8-19-19-78-25-130s-20-122-30-155s-24-79-30-102
		c-26-94-48-55-60,104c-10,127-37,280-53,301c-15,18-89,15-239-12c-73-13-181-27-239-31s-148-15-200-25c-52-11-155-24-227-30
		c-73-6-175-19-225-29c-51-11-140-22-198-26c-58-3-150-15-205-25c-55-11-156-23-224-29c-157-12-155-9-146-145c3-55,14-140,25-190
		c10-50,21-134,24-186c4-52,9-111,12-131c11-72,40-69-590-69c-310,0-578-3-595-6c-30-6-31-9-31-56c0-33,5-50,15-54
		c20-8,33-54,44-154c5-47,19-121,30-165s23-111,27-150c4-38,13-88,21-110s21-90,29-152s21-131,29-154s20-83,25-133
		c6-50,19-122,30-161c10-38,22-99,25-135c4-36,15-96,25-135c11-38,24-110,30-160c7-49,18-112,26-140c8-27,21-95,29-150
		s24-136,35-179c11-44,20-96,20-116s9-72,21-116c11-43,26-126,34-184s21-124,29-147s20-84,25-135c13-110,27-166,49-190
		c14-17,137-18,2304-18h2289l23,23c16,16,25,41,31,82c4,33,16,81,26,107c10,27,24,81,30,121c6,39,18,85,26,100c8,16,20,63,28,106
		c7,43,21,95,29,116c9,21,21,70,27,109s18,84,26,100s21,66,28,112c8,45,21,96,29,112c9,17,21,63,27,104c6,40,17,85,24,99
		c8,14,20,64,29,112c8,47,21,98,29,114c8,15,20,61,26,101c6,41,18,86,26,101c7,15,20,65,29,112c8,46,21,100,30,120
		c8,20,20,66,26,101c5,36,18,85,29,109c10,24,22,70,26,103c4,32,15,77,25,101c10,23,23,73,29,111s19,92,30,119c10,28,21,74,25,104
		s14,67,22,83s22,67,30,113s21,100,30,121c8,20,22,72,29,115c8,43,21,91,29,108c9,16,16,39,16,50s7,27,16,35c14,14,70,16,470,16h454
		v270v270h-661c-414,0-667-4-679-10s-20-26-25-61c-4-28-15-70-25-93c-10-22-23-74-29-114c-6-41-18-86-26-101c-7-15-19-59-25-97
		c-7-38-23-101-36-141c-13-39-24-83-24-97c0-36-33-66-72-67c-196-4-301,0-310,12c-14,21-1,165,21,241c11,37,24,107,30,155
		c6,49,20,117,31,151c11,35,20,78,20,95c0,18,6,60,13,94c8,37,10,68,5,77c-16,29-67,46-175,61c-60,8-128,21-152,29
		c-23,9-84,21-134,27s-119,19-152,29s-89,21-125,25s-97,15-136,26c-39,10-107,24-152,29c-44,6-99,17-122,25c-22,8-89,21-148,29
		c-59,9-126,22-148,30c-23,8-82,19-132,25c-49,6-110,18-133,27c-24,8-72,18-105,21C3776,6142,3771,6141,3756,6118z M4459,5465
		c52-14,109-25,127-25c17,0,74-11,125-24c52-13,132-29,178-35c137-18,157-44,123-158c-12-38-26-105-31-151c-11-89-21-116-50-131
		c-28-15-804-16-831-1c-18,10-21,18-16,48c3,21,10,75,16,122s19,112,29,145s22,92,26,130c3,39,14,81,22,94c15,23,18,23,102,17
		C4326,5492,4408,5478,4459,5465z M3040,5250c11-11,20-32,20-47c1-16,5-75,10-132c6-68,6-110-1-122c-9-18-29-19-418-19
		c-486,0-449-10-458,122c-7,100,1,118,52,118c18,0,76,9,129,20s158,24,233,30c74,6,175,20,222,30C2948,5276,3014,5276,3040,5250z
		 M5730,4371c15-29,12-64-10-120c-10-27-22-73-26-103c-4-29-15-74-25-100s-23-78-29-115s-20-87-30-110s-22-68-25-100
		c-4-32-16-78-26-103s-23-76-29-114s-18-85-26-105c-9-20-22-71-29-113c-8-42-20-89-28-105c-8-15-20-61-26-100c-6-40-20-94-30-120
		c-10-27-22-73-26-103c-4-29-15-73-25-95c-10-23-23-73-29-112c-6-38-18-87-27-108c-8-21-20-63-24-93c-5-30-15-60-21-68
		c-10-12-294-14-1880-14H1490l-10,23c-20,49-50,177-60,261c-6,49-19,121-30,160c-10,39-22,100-25,136c-4,36-15,97-25,135
		c-11,39-24,109-29,157c-6,48-17,108-25,132c-9,25-21,87-27,138s-19,125-30,163c-10,39-23,108-29,154c-5,46-18,116-29,155
		s-22,104-26,144c-3,40-13,92-21,114c-17,49-18,120-2,136c9,9,535,12,2305,12C5683,4390,5719,4390,5730,4371z"/>
	<path class="st0" d="M1595,1584c-27-8-76-22-107-30c-32-8-74-25-94-39s-41-25-46-25c-6,0-22-9-36-20c-15-12-51-38-81-60
		c-50-36-181-180-181-199c0-5-12-26-26-47c-26-37-49-95-81-199c-18-59-22-333-5-405c10-46,55-163,72-190c6-8,19-33,31-55
		c25-47,111-150,160-192c44-39,139-103,151-103c5,0,21-9,36-20s50-26,77-34c28-8,70-22,95-31c36-14,78-18,205-18c149,0,164,2,220,25
		c33,14,76,28,96,32c20,3,44,15,53,25c10,11,29,22,44,26c25,6,41,17,128,87c60,49,204,229,204,256c0,4,11,27,24,52
		c24,45,60,197,71,300c4,34,0,87-10,140c-24,122-29,186-17,194c18,11,1523,9,1535-3c6-6,6-36-1-88c-29-202-21-396,17-473
		c10-19,24-52,31-74c7-21,23-54,36-74c13-19,24-38,24-43c0-13,111-142,150-175c92-78,191-136,270-159c25-7,65-21,90-30
		c36-14,78-18,205-18c150,0,164,2,222,27c34,14,70,26,79,26c42,0,216,113,285,186c93,98,99,104,119,142c11,20,24,44,29,52
		c52,87,90,221,107,373c7,70-36,296-70,364c-14,28-26,53-26,56c0,9-65,112-85,135c-86,96-224,212-253,212c-5,0-26,11-46,25
		c-21,14-61,31-89,37c-29,6-65,18-82,27c-27,15-182,16-1755,18C1867,1599,1639,1597,1595,1584z M1885,1031c80-38,128-90,159-175
		c32-86,32-118,1-203c-28-73-56-108-123-154c-126-85-307-52-402,75c-47,62-66,139-55,226c9,71,24,105,72,157
		C1631,1061,1764,1089,1885,1031z M5059,1030c81-42,131-101,160-194l24-75l-23-82c-34-119-115-199-224-220c-182-35-344,80-362,259
		c-14,135,42,243,161,308c52,29,70,33,132,34C4988,1060,5009,1055,5059,1030z"/>
</g>
</svg>
