<?xml version="1.0" encoding="utf-8"?>
<!-- Generator: Adobe Illustrator 19.0.0, SVG Export Plug-In . SVG Version: 6.00 Build 0)  -->
<svg version="1.1" id="Layer_1" xmlns="http://www.w3.org/2000/svg" xmlns:xlink="http://www.w3.org/1999/xlink" x="0px" y="0px"
	 viewBox="44 47 700 700" style="enable-background:new 44 47 700 700;" xml:space="preserve">
<style type="text/css">
	.st0{fill:#FFFFFF;}
</style>
<g transform="translate(0.000000,700.000000) scale(0.100000,-0.100000)">
	<path class="st0" d="M1945,6510c-4-14-24-25-63-36c-31-9-68-25-82-36c-85-65-104-78-114-78c-15,0-79-67-100-105
		c-18-32-58-91-77-113c-6-7-25-57-42-110l-32-97V3030V125l32-97c17-53,36-103,42-110c19-22,59-81,77-113c21-38,85-105,100-105
		c10,0,29-13,114-78c14-11,51-27,82-36c39-11,59-22,63-36c6-20,18-20,1995-20s1989,0,1995,20c4,14,24,25,63,36c31,9,68,25,82,36
		c85,65,104,78,114,78c15,0,79,67,100,105c18,32,58,91,77,113c6,7,25,57,42,110l32,97v2905v2905l-32,97c-17,53-36,103-42,110
		c-19,22-59,81-77,113c-21,38-85,105-100,105c-10,0-29,13-114,78c-14,11-51,27-82,36c-39,11-59,22-63,36c-6,20-18,20-1995,20
		S1951,6530,1945,6510z M5850,6058c77-37,113-79,138-163c28-96,26-235-3-265l-21-20H3940H1916l-21,20c-29,30-31,169-3,265
		c31,104,95,161,208,185c19,4,858,7,1865,6l1830-1L5850,6058z M5967,5159c15-5,31-16,35-22c10-15,10-4038,0-4053
		c-22-34-28-34-2062-34s-2040,0-2062,34c-10,15-10,4038,0,4053c4,7,19,16,32,22C1946,5173,5929,5174,5967,5159z M5886,600
		c56,0,77-4,95-19c23-19,24-24,26-183c3-252-30-335-157-396l-55-27H3940H2085l-55,27c-127,61-160,144-157,395c2,199,1,196,120,203
		c45,3,924,4,1952,3C4974,601,5847,600,5886,600z"/>
	<path class="st0" d="M4355,4689c-27-4-109-12-181-18c-96-7-142-15-170-29c-22-11-59-23-84-27c-62-10-155-48-265-110
		c-33-19-76-42-95-51s-60-37-91-63c-32-25-85-68-119-95c-57-45-125-119-205-221c-16-21-38-46-47-56c-16-17-64-102-150-268
		c-21-41-41-93-45-115c-3-23-14-57-24-77s-23-65-28-100c-6-35-18-107-28-159c-13-77-17-181-20-556l-4-461l-235-239
		c-130-131-244-255-255-276c-29-56-34-116-15-179c13-45,24-62,67-97c51-41,53-42,129-42c69,0,81,3,123,31c26,17,142,126,259,243
		c117,116,229,222,249,234c35,21,43,21,434,22c462,0,701,13,755,40c20,10,54,21,75,25c73,11,195,60,290,115c28,16,65,36,84,45
		c35,17,167,114,212,155c9,8,31,26,48,40c59,45,281,322,281,350c0,4,10,23,23,42c13,18,29,49,35,68c7,18,19,41,28,51
		c8,9,22,39,29,65c8,27,23,76,34,109c49,150,61,215,71,360c13,197,13,1007,0,1074c-7,35-21,66-45,96c-32,38-45,45-114,64
		c-73,20-100,21-517,20C4603,4698,4383,4694,4355,4689z M5074,4231c16-18,17-50,14-423c-4-345-7-411-22-458c-9-30-21-77-27-105
		c-9-46-41-125-74-185c-8-14-23-44-34-67c-58-123-284-355-401-412c-25-12-79-40-120-61c-41-22-85-40-98-40c-12,0-51-12-85-26
		c-62-27-64-27-331-28c-243-1-270,1-280,16c-9,15,61,88,477,503c474,473,487,487,503,542c18,61,13,136-11,182
		c-30,59-118,111-187,111c-93,0-126-28-619-520c-251-251-471-463-488-469c-16-7-35-10-40-6c-14,8-14,279-1,360c6,33,17,108,24,166
		c9,65,23,122,35,145c12,21,21,47,21,57c0,20,18,60,58,128c15,26,39,70,55,98c15,28,31,51,35,51s15,12,24,28c37,61,203,209,297,263
		c92,54,187,97,235,109c27,6,62,18,79,26c43,23,193,31,593,33C5041,4250,5058,4249,5074,4231z"/>
</g>
</svg>
