<?xml version="1.0" encoding="utf-8"?>
<!-- Generator: Adobe Illustrator 19.0.0, SVG Export Plug-In . SVG Version: 6.00 Build 0)  -->
<svg version="1.1" id="Layer_1" xmlns="http://www.w3.org/2000/svg" xmlns:xlink="http://www.w3.org/1999/xlink" x="0px" y="0px"
	 viewBox="44 47 700 700" style="enable-background:new 44 47 700 700;" xml:space="preserve">
<style type="text/css">
	.st0{fill:#FFFFFF;}
</style>
<g transform="translate(0.000000,700.000000) scale(0.100000,-0.100000)">
	<path class="st0" d="M530,6517c0-16-62-77-78-77c-9,0-12-44-12-167c0-145,3-172,20-207c14-30,22-79,30-181c13-169,17-200,40-290
		c10-38,21-101,25-139s13-86,21-108c7-22,20-77,28-123s22-98,31-115s21-56,26-88c6-31,18-69,26-85s21-59,29-96c7-38,23-88,34-112
		s20-53,20-64s14-47,30-80c17-33,30-66,30-75c0-8,11-33,25-55c13-22,25-49,25-60s14-47,30-80s30-66,30-74c0-7,9-30,19-50
		c11-20,29-56,40-81s25-52,31-60c5-8,16-31,25-50c8-19,19-42,25-50c5-8,16-31,25-50c8-19,22-46,30-60s22-41,30-60c9-19,31-62,49-95
		c19-33,41-74,49-91s20-35,27-39c6-4,20-27,30-51c11-24,23-44,28-44s14-12,21-27c7-16,23-45,37-65c13-21,35-55,48-75
		c23-37,106-163,136-206c22-32,73-100,87-117c24-29,78-99,103-135c63-90,207-262,394-468c39-43,74-88,78-99c5-11,3-101-2-201
		c-6-100-7-276-4-392c6-178,10-221,29-280c12-38,25-99,29-135c4-35,14-80,22-99c8-18,21-60,29-93c9-32,25-73,35-91
		c11-18,20-39,20-47c0-9,13-42,30-75c16-33,30-67,30-75s13-34,28-57s40-64,56-90c98-162,136-214,259-351c99-110,149-158,217-205
		c14-10,41-30,61-45c122-92,147-110,174-123c17-9,39-20,50-27c40-22,214-102,223-102c27,0,21,51-21,180c-61,189-81,376-74,724
		c4,224,7,270,25,327c11,36,23,95,27,130s12,70,17,77c17,20,52,14,99-18c24-16,48-30,52-30c5,0,23-10,40-22s45-29,61-38
		c17-9,40-21,51-27s47-23,80-38s86-40,118-56c83-42,143-40,211,5c28,19,439,423,914,898c666,668,865,872,872,898c14,46,4,105-26,157
		c-13,23-24,48-24,55s-11,29-24,48s-27,46-31,60s-17,41-30,60c-12,19-43,67-68,107c-26,39-51,74-57,78c-16,10-12,40,8,57
		c65,59,652,119,814,84c40-9,125-20,188-25c73-6,132-17,160-29c25-10,67-22,95-26c27-5,66-16,87-27c50-25,98-26,98,0
		c0,10-7,24-15,31s-15,17-15,24c0,11-62,146-81,176c-5,8-18,34-29,57c-10,23-26,50-35,60c-36,41-85,105-85,113c0,7-28,46-82,114
		c-24,29-160,163-261,257c-32,29-88,72-125,94s-78,48-92,58c-77,55-204,127-223,127c-8,0-35,11-61,25s-53,25-59,25c-7,0-39,13-72,29
		s-85,32-115,36s-75,15-100,25s-85,23-134,29c-50,7-93,14-97,16c-14,9-249,26-364,26c-67,0-153-6-196-14c-41-9-112-18-157-22
		c-94-9-94-8-223,110c-36,33-113,104-172,159c-119,109-228,201-261,218c-11,6-57,41-101,78s-89,72-100,77c-11,6-48,33-81,60
		c-34,26-77,57-95,68c-75,46-130,82-196,126c-23,16-46,29-51,29s-15,7-23,16c-7,8-30,25-52,36s-45,24-51,30c-17,15-83,52-191,108
		c-123,63-147,76-182,95c-16,8-50,26-78,39c-27,14-57,30-65,35c-26,16-152,71-164,71c-6,0-38,14-71,30s-66,30-73,30s-34,11-60,25
		s-54,25-62,25s-42,14-75,30s-69,30-80,30s-42,11-70,23c-27,13-71,27-98,30c-26,4-64,15-85,25c-20,11-66,25-101,31
		c-35,7-74,19-85,26c-12,8-59,21-106,29s-103,21-126,29c-23,9-72,18-110,22s-100,15-139,25c-87,23-125,28-294,40
		c-99,7-145,15-176,30c-36,18-61,20-208,20C566,6530,530,6527,530,6517z M3075,4750c162-45,243-100,360-241c36-42,65-80,65-83
		s14-35,30-69c17-35,30-77,30-94c0-16,9-65,21-108c19-72,19-82,5-124c-8-25-19-80-25-121c-11-74-40-143-102-236
		c-27-40-134-143-185-178c-64-45-160-84-222-90c-34-3-85-13-112-22c-44-14-53-14-103,0c-29,9-87,20-127,26c-41,6-81,16-89,24
		c-9,7-31,18-49,24c-65,22-236,181-282,262c-56,99-91,225-98,345c-3,73,0,101,16,148c12,32,24,79,28,103c3,25,17,60,29,78
		c13,19,26,44,30,56c9,28,181,201,220,220c17,8,44,25,62,36c18,12,52,25,77,28c25,4,69,16,98,27C2823,4787,2962,4782,3075,4750z"/>
	<path class="st0" d="M6280,2311c-77-17-159-81-218-171c-37-55-37-56-37-160c0-105,0-105,39-165c24-38,183-205,430-451
		c362-363,396-394,461-425c98-46,176-46,266-2c73,36,141,101,164,155c8,21,24,42,35,48c18,10,20,21,20,110c0,82-3,100-15,100
		c-8,0-26,24-41,53c-36,72-791,828-874,875C6450,2311,6348,2326,6280,2311z"/>
	<path class="st0" d="M5550,1601c-77-25-160-104-203-191c-44-91-44-168,2-265c30-66,64-102,574-612c512-511,546-543,612-574
		c95-44,165-45,255-5c77,34,120,69,169,139l36,52v120v120l-38,55c-46,68-1060,1086-1102,1107c-16,8-40,25-52,36c-19,17-39,21-125,23
		C5621,1608,5564,1606,5550,1601z"/>
	<path class="st0" d="M4895,942c-42-15-121-68-150-101c-16-19-43-57-59-85c-27-46-30-59-30-141c0-71,4-97,20-124c10-18,25-45,33-60
		c8-14,192-204,410-423c309-309,408-402,449-422c28-15,52-33,52-41c0-12,18-15,100-15c89,0,100,2,110,20c6,11,27,27,48,35
		c54,23,119,91,155,164c44,91,44,169-2,266c-31,64-63,100-407,446c-206,206-391,388-412,403c-109,78-112,80-207,82
		C4956,948,4906,946,4895,942z"/>
</g>
</svg>
