 <svg version="1.0" xmlns="http://www.w3.org/2000/svg" width="700.000000pt" height="700.000000pt" viewBox="0 0 700.000000 700.000000" preserveAspectRatio="xMidYMid meet">
<metadata>
Created by potrace 1.12, written by Peter Selinger 2001-2015
</metadata>
<g transform="translate(0.000000,700.000000) scale(0.100000,-0.100000)" fill="#000000" stroke="none">
<path d="M5544 6790 c-63 -5 -98 -15 -158 -44 -43 -21 -86 -45 -96 -54 -10 -9
-47 -43 -83 -75 -36 -32 -82 -82 -101 -112 -20 -30 -41 -57 -46 -60 -6 -4 -19
-23 -31 -43 -11 -20 -33 -55 -50 -77 -36 -49 -71 -97 -106 -150 -14 -22 -32
-46 -40 -53 -7 -7 -13 -17 -13 -21 0 -4 -9 -16 -19 -28 -10 -11 -26 -33 -35
-49 -9 -16 -32 -49 -51 -74 -19 -25 -60 -83 -92 -129 -32 -46 -67 -96 -78
-111 -11 -15 -37 -52 -57 -81 -20 -30 -58 -83 -83 -119 -26 -36 -58 -83 -73
-105 -15 -22 -31 -43 -35 -46 -5 -4 -19 -22 -31 -42 -20 -32 -45 -69 -98 -143
-13 -17 -41 -57 -63 -89 -22 -32 -49 -71 -60 -85 -11 -15 -47 -67 -80 -115
-33 -48 -70 -101 -83 -119 -12 -17 -33 -47 -47 -66 -14 -19 -35 -49 -47 -66
-13 -17 -41 -57 -63 -89 -22 -32 -49 -70 -60 -85 -11 -15 -47 -67 -80 -115
-72 -105 -95 -137 -134 -190 -17 -22 -40 -57 -51 -77 -11 -21 -25 -38 -30 -38
-5 0 -19 -17 -30 -37 -11 -21 -34 -56 -51 -78 -42 -57 -81 -112 -104 -150 -11
-18 -40 -56 -65 -86 -54 -65 -100 -134 -100 -151 0 -14 62 -81 106 -115 16
-12 47 -36 69 -53 50 -39 88 -60 112 -60 25 1 68 40 156 146 69 83 290 329
341 380 12 11 68 71 126 134 58 63 114 123 125 135 11 12 54 59 95 106 41 46
84 93 95 104 11 12 56 61 100 109 44 49 105 115 135 146 82 85 140 148 304
330 150 166 333 365 371 404 26 26 225 244 284 311 24 28 78 86 120 131 230
245 291 316 291 337 0 6 11 24 23 41 13 17 37 63 53 101 26 65 29 80 29 200
l0 130 -35 55 c-94 150 -192 197 -376 180z m31 -90 c9 -15 -23 -68 -51 -83
-40 -21 -145 -129 -161 -165 -7 -18 -20 -35 -27 -38 -7 -3 -34 9 -59 26 -32
22 -48 40 -53 62 -6 30 -2 37 59 94 56 54 77 66 144 87 83 27 138 33 148 17z"></path>
<path d="M203 5756 c-76 -25 -117 -57 -148 -115 -9 -18 -25 -36 -36 -38 -19
-5 -19 -45 -19 -2128 0 -2075 0 -2124 19 -2130 10 -3 24 -18 31 -34 21 -52 80
-98 154 -120 l68 -21 3228 0 3228 0 68 21 c74 22 133 68 154 120 7 16 21 31
31 34 19 6 19 55 19 2130 0 2083 0 2123 -19 2128 -11 2 -27 20 -36 38 -31 59
-71 90 -151 115 -74 24 -80 24 -497 24 -474 0 -436 6 -516 -80 -23 -25 -87
-93 -142 -152 -123 -131 -142 -155 -134 -168 4 -6 184 -10 518 -10 448 0 515
-2 535 -16 l22 -15 0 -1647 c0 -1475 -2 -1650 -16 -1670 l-15 -22 -3049 0
-3049 0 -15 22 c-14 20 -16 195 -16 1670 l0 1647 22 15 c20 14 206 16 1781 16
1201 0 1764 3 1778 10 11 6 30 28 44 48 13 20 38 55 54 77 17 22 40 56 51 75
11 19 36 55 55 80 41 53 58 88 51 107 -4 11 -350 13 -1993 13 l-1988 -1 -72
-23z"></path>
<path d="M2655 3383 c-38 -11 -121 -63 -152 -95 -17 -18 -36 -50 -42 -70 -7
-20 -18 -42 -26 -48 -7 -6 -18 -34 -24 -62 -6 -27 -18 -60 -26 -71 -9 -12 -20
-40 -26 -62 -17 -65 -95 -172 -153 -209 -56 -37 -83 -47 -198 -71 -82 -18
-112 -36 -81 -51 10 -5 158 -10 328 -12 255 -2 322 0 380 13 39 8 108 23 155
31 47 9 104 24 128 34 24 11 60 22 80 26 49 10 150 63 187 99 43 43 79 125 72
166 -12 74 -46 143 -99 200 -49 53 -147 129 -165 129 -5 0 -31 12 -58 27 -44
23 -63 27 -155 29 -58 2 -114 0 -125 -3z"></path>
<path d="M2793 858 c-15 -21 -43 -136 -53 -223 -15 -135 -70 -218 -227 -344
-45 -36 -57 -74 -27 -85 20 -8 2008 -8 2028 0 30 11 18 49 -26 85 -76 60 -167
151 -174 173 -4 12 -15 33 -26 48 -13 19 -22 57 -28 115 -10 92 -36 209 -53
231 -7 9 -161 12 -707 12 -546 0 -700 -3 -707 -12z"></path>
</g>
</svg>