<?xml version="1.0" encoding="utf-8"?>
<!-- Generator: Adobe Illustrator 19.0.0, SVG Export Plug-In . SVG Version: 6.00 Build 0)  -->
<svg version="1.1" id="Layer_1" xmlns="http://www.w3.org/2000/svg" xmlns:xlink="http://www.w3.org/1999/xlink" x="0px" y="0px"
	 viewBox="-281 368.6 48 55.5" style="enable-background:new -281 368.6 48 55.5;" xml:space="preserve">
<style type="text/css">
	.st0{fill:#FFFFFF;}
</style>
<g transform="translate(0.000000,700.000000) scale(0.100000,-0.100000)">
	<path class="st0" d="M-2791.5,3235.8c-3.2-0.5-9.5-4.1-12.1-7c-0.8-0.9-1.9-2.8-2.5-4.2c-0.6-1.4-1.7-2.9-2.5-3.4l-1.4-0.9v-142.7
		c0-139.7,0-142.8,1.3-143.1c0.7-0.1,1.9-1.6,2.7-3.4c1.9-4.3,7.6-9,12.8-10.6c3.8-1.2,9.5-1.2,85.1-1.6c78.4-0.3,81.1-0.4,82.5-1.6
		c1.4-1.3,1.4-1.8,1.4-25c0-20.4-0.1-24-1.1-25.3l-1-1.5l-30-0.1c-36.9,0-37.6-0.1-42.8-3.9c-2.1-1.6-5.1-4.6-6.5-6.8
		c-2.5-3.8-2.6-4.1-2.6-10.2c0-5.5,0.2-6.6,1.5-8.4c0.9-1.1,1.6-2.3,1.6-2.7c0-0.7,4.3-4.7,7.9-7.4l2.7-2h124.5h124.5l2.7,2
		c3.6,2.7,7.9,6.7,7.9,7.4c0,0.3,0.7,1.6,1.6,2.7c1.3,1.9,1.5,2.9,1.5,8.4c0,6.1-0.1,6.4-2.6,10.2c-1.4,2.2-4.4,5.2-6.5,6.8
		c-5.1,3.8-5.9,3.9-42.8,3.9l-30,0.1l-1,1.5c-1,1.3-1.1,4.9-1.1,25.3c0,23.2,0,23.7,1.4,25c1.4,1.2,4,1.3,82.5,1.6
		c75.6,0.4,81.3,0.5,85.1,1.6c5.2,1.6,11,6.3,12.8,10.6c0.8,1.7,2,3.2,2.7,3.4c1.3,0.3,1.3,3.4,1.3,143.1v142.7l-1.4,0.9
		c-0.8,0.5-1.9,2.2-2.6,3.8c-1.4,3.3-3.6,5.4-9,8.8l-3.8,2.3l-220.8,0.1C-2689,3236.2-2789.8,3236-2791.5,3235.8z M-2366.3,3201.9
		l1.7-0.9l0.2-122.5c0.1-121.8,0.1-122.5-1.2-123.9c-1.4-1.4-2.2-1.4-204.3-1.4s-203,0-204.3,1.4c-1.4,1.4-1.4,2.1-1.2,123.9
		l0.2,122.5l1.7,0.9c1.4,0.7,42.2,0.9,203.7,0.9S-2367.7,3202.6-2366.3,3201.9z"/>
	<path class="st0" d="M-2550.7,3165.4c-5-1.6-9.3-8.1-11.4-17.4c-0.5-2.1-1.4-4.8-2-6c-0.6-1.2-1.4-3.8-1.9-5.8s-1.4-4.7-2-6
		c-0.7-1.4-1.5-3.7-1.7-5.1c-0.3-1.5-1.2-4.5-2.1-6.7c-0.9-2.2-1.6-4.7-1.6-5.5c0-0.9-0.8-3.2-1.6-5.1c-0.9-1.9-1.9-4.9-2.1-6.5
		c-0.3-1.6-1.1-4.2-1.8-5.6c-0.8-1.4-1.6-4.2-2.1-6.2c-0.4-2-1.3-4.7-2-6c-0.7-1.3-1.4-3.8-1.7-5.4c-0.3-1.6-1.2-4.6-2.1-6.5
		c-0.9-1.9-1.6-4.3-1.6-5.2s-0.8-3.3-1.6-5.2c-0.9-1.9-1.9-4.9-2.1-6.5c-0.3-1.6-1-4.1-1.7-5.4c-0.7-1.3-1.6-4-2-6
		c-0.4-2-1.3-4.7-2.1-6.2c-0.7-1.4-1.5-3.9-1.8-5.6c-0.3-1.7-1-4.2-1.7-5.5c-0.7-1.4-1.5-3.7-1.7-5.1c-0.3-1.5-1.2-4.5-2.1-6.5
		c-2.9-7.3-2.7-15.5,0.5-19c2.1-2.2,7.5-5,9.9-5c3.1,0,8.4,2.3,10.6,4.5c2.2,2.3,6.8,12.6,6.9,15.4c0,1,0.8,3.3,1.7,5.1
		c1,1.9,1.7,4.1,1.7,5c0,0.8,0.8,3.3,1.6,5.5c0.9,2.1,1.9,5.1,2.1,6.7c0.3,1.5,1.1,3.8,1.7,5.1c0.7,1.3,1.6,4,2,6
		c0.4,2,1.3,4.7,2.1,6.2c0.7,1.4,1.5,3.9,1.8,5.6c0.3,1.7,1,4.2,1.7,5.5c0.6,1.4,1.5,4,2,6c0.4,2,1.3,4.7,2.1,6.2
		c0.7,1.4,1.4,3.9,1.7,5.5c0.3,1.6,1,4.1,1.7,5.5c0.7,1.4,1.6,4.2,2.1,6.2c0.4,2,1.3,4.7,2.1,6.2c0.7,1.4,1.4,3.9,1.7,5.5
		c0.3,1.6,1,4.1,1.7,5.5c0.7,1.4,1.6,4.4,2.1,6.7c0.5,2.2,1.2,4.7,1.7,5.5c0.5,0.8,1.4,3.4,2,6c0.6,2.5,1.5,5.3,2.1,6.2
		c0.5,0.8,1.2,2.9,1.5,4.6c0.3,1.7,1.2,4.7,2.2,6.8c1.4,3,1.7,4.9,1.8,9.6c0.1,5.8,0,6-2.3,8.8
		C-2538.9,3166-2544.3,3167.4-2550.7,3165.4z"/>
	<path class="st0" d="M-2626.9,3124.9c-2.5-1-5.2-2.2-6.2-2.7c-1-0.5-2.5-1.2-3.4-1.7c-1-0.4-3.2-1.4-5.1-2.3
		c-1.9-0.9-5.6-2.6-8.2-3.8c-2.6-1.2-6.7-3.1-8.8-4.1c-2.2-1.1-4.4-2-4.9-2s-1.6-0.5-2.5-1.3c-0.9-0.7-2.4-1.5-3.4-1.8
		c-1.5-0.4-6-2.5-21.6-10c-2.3-1.1-4.4-2-4.7-2s-2.3-1.2-4.4-2.5c-2.8-1.9-4.2-3.6-5.7-6.5c-2.5-4.9-2.5-7.1-0.2-11.6
		c2.7-5.5,4.2-6.4,20.7-14.1c2.9-1.3,6.7-3.2,8.4-4.1c1.8-0.9,3.6-1.6,4.2-1.6s2-0.8,3.2-1.6c1.2-0.9,3.2-1.9,4.5-2.1
		c1.2-0.3,2.7-0.9,3.1-1.4c0.5-0.6,2.5-1.5,4.5-2.1c2.1-0.5,4-1.4,4.5-2c0.5-0.5,2.1-1.4,3.6-1.8c1.6-0.4,3.6-1.3,4.5-2.1
		c1-0.7,2.1-1.3,2.5-1.3c0.8,0,6.3-2.5,13-5.9c6.9-3.5,13-2.8,18.2,2.1l3.2,3v6.2c0,6.1,0,6.2-2.4,8.6c-2.7,2.9-7,5.5-14.4,8.8
		c-4.9,2.2-13.8,6.3-18.2,8.4c-1.9,0.9-5.6,2.6-8.2,3.8c-6.7,3-6.7,3.1-7,3.9c-0.4,1.2,3.6,4.9,6.2,5.6c1.4,0.4,3.4,1.3,4.4,2.1
		c1,0.7,2.8,1.5,3.9,1.8c1.2,0.3,2.8,1,3.8,1.7s2.5,1.5,3.5,1.8c1,0.3,3.1,1.2,4.8,2.1c4.9,2.5,12.1,5.8,12.8,5.8
		c1.1,0,6.9,4.5,8.9,6.9c1.7,2,2,3,2.2,7.5c0.3,4.9,0.1,5.3-1.9,8c-2.1,2.7-8.6,6.4-11.3,6.4
		C-2621.8,3126.6-2624.4,3125.9-2626.9,3124.9z"/>
	<path class="st0" d="M-2524.2,3124.8c-2.4-1.2-4.7-2.9-6-4.6c-2.1-2.6-2.2-3-1.9-8c0.2-4.5,0.5-5.5,2.2-7.5c2-2.4,7.8-6.9,8.9-6.9
		c0.7,0,7.9-3.2,12.8-5.8c1.7-0.9,3.8-1.9,4.8-2.1c1-0.3,2.5-1.1,3.5-1.8s2.6-1.4,3.8-1.7c1.1-0.3,2.9-1.1,3.9-1.8
		c1-0.8,3-1.6,4.4-2.1c2.6-0.7,6.6-4.3,6.2-5.6c-0.3-0.8-0.3-0.9-7-3.9c-2.6-1.2-6.3-2.9-8.2-3.8c-4.4-2.1-13.3-6.2-18.2-8.4
		c-3.6-1.6-4.5-2.1-9.6-4.9c-1.3-0.7-3.5-2.5-4.8-3.8c-2.4-2.5-2.4-2.5-2.4-8.6v-6.2l3.2-3c5.2-4.9,11.4-5.6,18.4-2.1
		c6.7,3.4,12.1,5.8,12.8,5.8c0.4,0,1.5,0.6,2.5,1.3c0.9,0.8,2.9,1.6,4.5,2.1c1.5,0.4,3.2,1.2,3.6,1.8c0.4,0.5,2.4,1.4,4.5,2
		c2,0.6,4,1.5,4.5,2.1c0.4,0.5,1.9,1.2,3.1,1.4c1.3,0.2,3.3,1.2,4.5,2.1c1.2,0.9,2.7,1.6,3.2,1.6s2.4,0.8,4.2,1.6
		c1.7,1,5.5,2.7,8.3,4c16.5,7.5,18.1,8.6,20.8,14.1c2.3,4.5,2.3,6.7-0.2,11.6c-1.5,2.9-2.9,4.6-5.7,6.5c-2.1,1.4-4,2.5-4.4,2.5
		s-2.5,0.9-4.7,2c-15.6,7.5-20.1,9.6-21.6,10c-1,0.3-2.5,1.1-3.4,1.8c-0.9,0.8-2,1.3-2.5,1.3c-0.5,0-2.7,0.9-4.9,2
		c-2.2,1-6.2,2.9-8.8,4.1c-10.8,5-12.4,5.8-14.1,6.7c-4.5,2.3-13.4,5.8-14.9,5.7C-2519.7,3126.6-2522.1,3125.7-2524.2,3124.8z"/>
</g>
</svg>
