<?xml version="1.0" encoding="utf-8"?>
<!-- Generator: Adobe Illustrator 19.0.0, SVG Export Plug-In . SVG Version: 6.00 Build 0)  -->
<svg version="1.1" id="Layer_1" xmlns="http://www.w3.org/2000/svg" xmlns:xlink="http://www.w3.org/1999/xlink" x="0px" y="0px"
	 viewBox="370 373.3 48 48" style="enable-background:new 370 373.3 48 48;" xml:space="preserve">
<style type="text/css">
	.st0{fill:#FFFFFF;}
</style>
<g transform="translate(0.000000,700.000000) scale(0.100000,-0.100000)">
	<path class="st0" d="M4080.2,3266.4c-4.3-0.4-6.7-1.1-10.8-3.2c-2.9-1.5-5.9-3.3-6.6-3.9c-0.7-0.7-3.2-3.1-5.7-5.5
		c-2.5-2.3-5.6-6-6.9-8.2c-1.4-2.2-2.8-4.1-3.2-4.4c-0.4-0.3-1.3-1.7-2.1-3.1c-0.8-1.5-2.3-4-3.4-5.6c-2.5-3.6-4.9-7.1-7.3-10.9
		c-1-1.6-2.2-3.3-2.7-3.9c-0.5-0.5-0.9-1.2-0.9-1.5c0-0.3-0.6-1.2-1.3-2c-0.7-0.8-1.8-2.4-2.4-3.6c-0.6-1.2-2.2-3.6-3.5-5.4
		c-1.3-1.8-4.1-6-6.3-9.4c-2.2-3.3-4.6-7-5.3-8.1c-0.8-1.1-2.5-3.8-3.9-5.9c-1.4-2.2-4-6-5.7-8.7c-1.8-2.6-4-6-5-7.6
		c-1-1.6-2.1-3.1-2.4-3.3c-0.3-0.3-1.3-1.6-2.1-3.1c-1.4-2.3-3.1-5-6.7-10.4c-0.9-1.2-2.8-4.1-4.3-6.5c-1.5-2.3-3.4-5.2-4.1-6.2
		c-0.8-1.1-3.2-4.9-5.5-8.4s-4.8-7.4-5.7-8.7c-0.8-1.2-2.3-3.4-3.2-4.8c-1-1.4-2.4-3.6-3.2-4.8c-0.9-1.2-2.8-4.1-4.3-6.5
		c-1.5-2.3-3.4-5.1-4.1-6.2c-0.8-1.1-3.2-4.9-5.5-8.4c-4.9-7.6-6.5-10-9.2-13.8c-1.2-1.6-2.7-4.1-3.5-5.6c-0.8-1.5-1.7-2.8-2.1-2.8
		s-1.3-1.2-2.1-2.7c-0.8-1.5-2.3-4.1-3.5-5.7c-2.9-4.1-5.6-8.2-7.1-10.9c-0.8-1.3-2.7-4.1-4.5-6.3c-3.7-4.7-6.9-9.8-6.9-11
		c0-1,4.3-5.9,7.3-8.4c1.1-0.9,3.2-2.6,4.7-3.9c3.4-2.8,6-4.4,7.7-4.4c1.7,0.1,4.7,2.9,10.7,10.6c4.7,6,19.9,24,23.4,27.7
		c0.8,0.8,4.7,5.2,8.6,9.8c4,4.6,7.8,9,8.6,9.8c0.8,0.9,3.7,4.3,6.5,7.7c2.8,3.3,5.8,6.8,6.5,7.6c0.8,0.9,3.8,4.4,6.9,7.9
		c3,3.6,7.2,8.4,9.3,10.6c5.6,6.2,9.6,10.8,20.8,24c10.3,12.1,22.8,26.6,25.4,29.4c1.8,1.9,15.4,17.8,19.5,22.6
		c1.6,2,5.3,6.3,8.2,9.5c15.8,17.8,20,23,20,24.5c0,0.4,0.8,1.7,1.6,3c0.9,1.2,2.5,4.6,3.6,7.4c1.8,4.7,2,5.8,2,14.6v9.5l-2.4,4
		C4099.5,3264.2,4092.8,3267.6,4080.2,3266.4z M4082.3,3259.9c0.6-1.1-1.6-5-3.5-6c-2.7-1.5-9.9-9.4-11-12c-0.5-1.3-1.4-2.5-1.9-2.8
		s-2.3,0.7-4,1.9c-2.2,1.6-3.3,2.9-3.6,4.5c-0.4,2.2-0.1,2.7,4,6.8c3.8,3.9,5.3,4.8,9.9,6.3
		C4077.8,3260.6,4081.6,3261,4082.3,3259.9z"/>
	<path class="st0" d="M3713.9,3191.1c-5.2-1.8-8-4.1-10.1-8.4c-0.6-1.3-1.7-2.6-2.5-2.8c-1.3-0.4-1.3-3.3-1.3-154.9
		c0-151.1,0-154.6,1.3-155.1c0.7-0.2,1.6-1.3,2.1-2.5c1.4-3.8,5.5-7.1,10.6-8.7l4.7-1.5H3940h221.3l4.7,1.5c5.1,1.6,9.1,5,10.6,8.7
		c0.5,1.2,1.4,2.3,2.1,2.5c1.3,0.4,1.3,4,1.3,155.1c0,151.6,0,154.6-1.3,154.9c-0.8,0.1-1.9,1.5-2.5,2.8c-2.1,4.3-4.9,6.6-10.4,8.4
		c-5.1,1.7-5.5,1.7-34.1,1.7c-32.5,0-29.9,0.4-35.4-5.8c-1.6-1.8-6-6.8-9.7-11.1c-8.4-9.5-9.7-11.3-9.2-12.2
		c0.3-0.4,12.6-0.7,35.5-0.7c30.7,0,35.3-0.1,36.7-1.2l1.5-1.1v-119.9c0-107.4-0.1-120.1-1.1-121.6l-1-1.6H3940h-209.1l-1,1.6
		c-1,1.5-1.1,14.2-1.1,121.6v119.9l1.5,1.1c1.4,1,14.1,1.2,122.1,1.2c82.4,0,121,0.2,121.9,0.7c0.8,0.4,2.1,2,3,3.5
		c0.9,1.5,2.6,4,3.7,5.6c1.2,1.6,2.7,4.1,3.5,5.5c0.8,1.4,2.5,4,3.8,5.8c2.8,3.9,4,6.4,3.5,7.8c-0.3,0.8-24,0.9-136.7,0.9
		l-136.3-0.1L3713.9,3191.1z"/>
	<path class="st0" d="M3882.1,3018.4c-2.6-0.8-8.3-4.6-10.4-6.9c-1.2-1.3-2.5-3.6-2.9-5.1c-0.5-1.5-1.2-3.1-1.8-3.5
		c-0.5-0.4-1.2-2.5-1.6-4.5c-0.4-2-1.2-4.4-1.8-5.2c-0.6-0.9-1.4-2.9-1.8-4.5c-1.2-4.7-6.5-12.5-10.5-15.2
		c-3.8-2.7-5.7-3.4-13.6-5.2c-5.6-1.3-7.7-2.6-5.6-3.7c0.7-0.4,10.8-0.7,22.5-0.9c17.5-0.1,22.1,0,26.1,0.9
		c2.7,0.6,7.4,1.7,10.6,2.3c3.2,0.7,7.1,1.7,8.8,2.5c1.6,0.8,4.1,1.6,5.5,1.9c3.4,0.7,10.3,4.6,12.8,7.2c2.9,3.1,5.4,9.1,4.9,12.1
		c-0.8,5.4-3.2,10.4-6.8,14.6c-3.4,3.9-10.1,9.4-11.3,9.4c-0.3,0-2.1,0.9-4,2c-3,1.7-4.3,2-10.6,2.1
		C3886.7,3018.7,3882.8,3018.6,3882.1,3018.4z"/>
	<path class="st0" d="M3891.5,2834.6c-1-1.5-2.9-9.9-3.6-16.2c-1-9.8-4.8-15.9-15.6-25c-3.1-2.6-3.9-5.4-1.9-6.2
		c1.4-0.6,137.7-0.6,139.1,0c2.1,0.8,1.2,3.6-1.8,6.2c-5.2,4.4-11.5,11-11.9,12.6c-0.3,0.9-1,2.4-1.8,3.5c-0.9,1.4-1.5,4.1-1.9,8.4
		c-0.7,6.7-2.5,15.2-3.6,16.8c-0.5,0.7-11,0.9-48.5,0.9S3892,2835.2,3891.5,2834.6z"/>
</g>
</svg>
