<?xml version="1.0" standalone="no"?>
<!DOCTYPE svg PUBLIC "-//W3C//DTD SVG 20010904//EN"
 "http://www.w3.org/TR/2001/REC-SVG-20010904/DTD/svg10.dtd">
<svg version="1.0" xmlns="http://www.w3.org/2000/svg"
 width="260.000000pt" height="260.000000pt" viewBox="0 0 260.000000 260.000000"
 preserveAspectRatio="xMidYMid meet">
<metadata>
Created by potrace 1.11, written by Peter Selinger 2001-2013
</metadata>
<g transform="translate(0.000000,260.000000) scale(0.100000,-0.100000)"
fill="#000000" stroke="none">
<path d="M1165 2574 c-337 -50 -572 -168 -790 -395 -188 -195 -298 -423 -340
-699 -46 -302 29 -632 203 -894 61 -93 207 -244 307 -319 140 -104 322 -184
515 -224 117 -24 363 -24 480 0 182 38 357 111 490 205 91 64 232 202 302 297
105 140 184 322 225 515 24 117 24 363 0 480 -58 276 -175 490 -373 681 -183
176 -368 275 -619 330 -87 19 -331 33 -400 23z m618 -838 c129 -21 137 -30
137 -162 0 -58 -4 -106 -10 -109 -5 -3 -10 -16 -10 -28 0 -21 -46 -177 -96
-322 -103 -305 -135 -390 -155 -411 -20 -22 -31 -24 -103 -24 -94 1 -189 21
-217 46 -11 10 -31 55 -45 101 -14 46 -29 83 -33 83 -5 0 -16 -24 -26 -52 -26
-83 -53 -134 -79 -147 -14 -8 -69 -13 -145 -14 -120 -2 -123 -1 -145 24 -12
14 -28 52 -36 85 -7 32 -31 129 -53 214 -22 85 -43 171 -47 190 -4 19 -19 91
-34 159 -35 164 -36 284 -3 332 l23 34 144 6 c177 8 198 0 221 -83 11 -41 11
-42 27 -21 27 34 56 43 134 43 88 0 157 -28 206 -84 20 -23 34 -32 36 -24 28
103 42 136 68 161 28 28 32 29 91 24 34 -4 102 -13 150 -21z"/>
<path d="M1546 1468 c-26 -106 -49 -203 -52 -215 -8 -38 -30 -15 -48 50 -30
108 -68 232 -75 239 -3 3 -49 14 -101 23 -89 15 -95 15 -107 -2 -7 -9 -13 -23
-13 -30 0 -17 -90 -324 -100 -343 -12 -21 -16 -6 -29 120 -21 195 -33 295 -37
318 -4 21 -8 22 -115 22 l-111 0 6 -37 c10 -55 43 -234 82 -433 18 -96 39
-204 45 -240 6 -36 17 -85 23 -110 l12 -45 84 3 c47 2 88 7 92 11 8 7 82 210
120 328 20 64 44 97 52 72 2 -8 14 -50 26 -94 12 -44 38 -132 57 -196 l36
-117 36 -6 c20 -3 63 -8 97 -12 l61 -6 23 84 c12 45 26 97 31 113 11 37 57
200 68 240 24 86 34 123 75 265 25 85 42 158 38 162 -6 5 -186 28 -221 28 -4
0 -29 -87 -55 -192z"/>
</g>
</svg>
