 <svg version="1.0" xmlns="http://www.w3.org/2000/svg" width="700.000000pt" height="700.000000pt" viewBox="0 0 700.000000 700.000000" preserveAspectRatio="xMidYMid meet">
<metadata>
Created by potrace 1.12, written by Peter Selinger 2001-2015
</metadata>
<g transform="translate(0.000000,700.000000) scale(0.100000,-0.100000)" fill="#000000" stroke="none">
<path d="M734 6975 c-13 -14 -38 -25 -69 -29 -42 -7 -90 -29 -230 -105 -71
-40 -238 -209 -281 -286 -58 -106 -93 -185 -99 -228 -4 -26 -18 -64 -31 -83
-23 -33 -24 -43 -24 -189 0 -149 1 -155 24 -178 16 -16 25 -40 30 -80 4 -31
16 -66 26 -79 10 -13 25 -39 35 -58 30 -64 60 -115 91 -160 41 -59 249 -243
283 -251 14 -3 44 -16 66 -27 22 -12 55 -25 73 -28 18 -4 49 -22 69 -40 30
-29 35 -38 29 -66 -3 -18 -10 -76 -16 -128 -6 -52 -17 -124 -26 -159 -14 -59
-14 -72 0 -155 9 -50 20 -147 25 -216 6 -93 13 -136 28 -165 11 -22 24 -58 28
-80 7 -39 14 -55 90 -205 61 -117 106 -184 198 -291 37 -43 413 -423 834 -845
667 -666 772 -767 798 -768 27 -1 65 35 343 314 278 281 312 319 312 347 0 29
-72 104 -763 795 -848 848 -854 854 -898 1018 -13 48 -23 113 -23 150 0 81 37
222 73 275 67 101 106 147 140 166 20 11 60 37 90 59 33 23 71 41 95 45 23 3
68 10 101 16 76 13 262 -11 303 -40 15 -10 54 -36 87 -57 33 -21 73 -49 88
-61 16 -13 39 -23 53 -23 18 0 100 76 338 315 187 188 316 325 320 341 5 20
-1 32 -31 62 -21 20 -61 54 -88 74 -105 78 -122 90 -183 138 -34 27 -82 54
-105 61 -23 6 -53 19 -67 29 -14 10 -41 21 -60 25 -19 4 -50 16 -68 27 -45 28
-212 65 -356 80 -95 9 -159 9 -309 -1 -136 -8 -192 -9 -202 -1 -7 6 -16 27
-20 46 -13 74 -96 256 -134 299 -10 11 -24 31 -31 44 -24 46 -135 152 -222
211 -48 33 -93 60 -100 60 -6 0 -30 11 -52 24 -23 13 -63 27 -90 31 -32 5 -58
17 -73 31 -24 24 -27 24 -211 23 -181 -1 -188 -2 -208 -24z"></path>
<path d="M5857 6981 c-3 -14 -20 -22 -63 -31 -59 -11 -182 -65 -239 -105 -118
-80 -199 -157 -259 -245 -42 -60 -95 -159 -102 -187 -4 -16 -15 -44 -24 -63
-10 -20 -21 -57 -25 -83 -13 -84 -28 -88 -180 -53 -165 38 -486 29 -673 -19
-98 -25 -148 -44 -258 -96 -34 -16 -65 -29 -70 -29 -8 0 -54 -28 -132 -82 -32
-22 -136 -104 -210 -166 -18 -15 -373 -368 -790 -785 -416 -417 -768 -769
-781 -782 -24 -23 -24 -24 -5 -31 10 -4 22 -12 26 -18 17 -26 643 -646 652
-646 5 0 361 350 790 779 430 428 801 792 825 807 130 86 153 96 230 107 147
20 295 4 363 -40 24 -14 66 -41 94 -59 73 -47 118 -104 190 -244 28 -54 29
-59 29 -210 l-1 -155 -37 -70 c-64 -118 -86 -151 -127 -194 -40 -41 -50 -61
-29 -61 14 0 634 -620 642 -642 3 -10 15 -18 25 -18 30 0 206 196 266 297 16
26 39 64 52 83 13 19 29 51 35 70 7 19 20 46 29 60 10 14 23 45 30 70 7 25 19
58 27 73 7 15 27 107 43 203 37 219 40 376 10 503 -26 109 -31 200 -10 211 8
4 42 14 75 23 118 30 224 79 315 143 62 44 171 145 196 183 13 20 36 54 51 76
52 78 103 188 109 238 5 34 15 59 31 74 22 23 23 29 23 185 0 147 -2 164 -20
183 -10 11 -26 52 -34 90 -14 62 -35 111 -103 235 -38 70 -204 239 -275 280
-95 54 -191 99 -229 105 -50 8 -80 22 -92 41 -6 11 -49 14 -196 14 -177 0
-189 -1 -194 -19z"></path>
<path d="M4210 4862 c-14 -9 -168 -160 -343 -334 -205 -206 -317 -324 -317
-337 0 -11 9 -25 19 -30 35 -19 1513 -1506 1547 -1556 18 -27 42 -62 54 -77
11 -15 33 -53 48 -85 26 -55 27 -66 27 -208 0 -141 -2 -153 -26 -205 -24 -52
-87 -149 -126 -196 -10 -12 -57 -46 -104 -77 -61 -40 -99 -57 -135 -62 -27 -4
-76 -13 -110 -21 -44 -10 -70 -11 -95 -4 -19 6 -65 15 -103 20 -75 11 -157 56
-261 143 -18 15 -43 27 -56 27 -17 0 -107 -84 -346 -322 -333 -334 -360 -368
-312 -387 13 -5 44 -29 69 -52 61 -58 119 -102 224 -171 37 -25 167 -91 271
-138 22 -10 64 -23 93 -29 29 -6 65 -17 81 -25 28 -15 149 -30 321 -41 115 -7
364 16 434 41 l50 17 28 -34 c16 -19 36 -59 44 -89 8 -30 19 -62 25 -70 5 -8
19 -35 31 -60 11 -25 28 -52 37 -62 9 -9 38 -43 66 -75 94 -111 163 -170 252
-219 48 -26 99 -55 113 -65 14 -9 48 -20 75 -24 31 -5 57 -17 72 -31 23 -23
28 -24 203 -24 175 0 180 1 203 23 15 16 40 26 76 31 112 15 312 144 422 273
22 26 46 53 53 58 7 6 19 22 27 37 72 136 100 197 106 231 3 23 17 52 30 65
23 22 23 27 23 222 0 195 0 200 -23 222 -14 14 -27 42 -31 68 -4 24 -15 60
-26 79 -11 20 -26 52 -35 71 -8 19 -29 53 -45 75 -17 22 -41 56 -54 75 -28 41
-139 146 -186 175 -68 42 -126 75 -145 84 -35 15 -158 59 -202 70 -59 16 -67
36 -47 118 25 104 30 359 9 453 -9 41 -21 111 -27 155 -6 51 -20 102 -39 140
-16 33 -29 65 -29 72 0 6 -11 33 -25 59 -14 26 -25 53 -25 61 0 13 -44 95
-103 194 -45 75 -140 174 -904 939 -430 432 -790 795 -798 808 -19 26 -23 27
-55 4z"></path>
<path d="M1152 3371 c-4 -10 -38 -54 -77 -96 -38 -42 -95 -115 -127 -161 -53
-78 -128 -222 -128 -248 0 -6 -11 -32 -25 -58 -14 -26 -25 -53 -25 -60 0 -7
-12 -38 -26 -68 -19 -40 -28 -82 -34 -160 -5 -58 -17 -144 -26 -192 -15 -80
-15 -92 0 -175 9 -48 20 -133 23 -189 l6 -101 -35 -26 c-19 -15 -41 -27 -49
-27 -8 0 -34 -10 -59 -22 -25 -12 -64 -29 -87 -37 -72 -27 -288 -230 -322
-304 -20 -42 -34 -68 -78 -139 -12 -20 -26 -56 -29 -80 -4 -24 -17 -52 -31
-66 -23 -22 -23 -27 -23 -222 0 -195 0 -200 23 -222 13 -13 27 -42 30 -65 6
-35 60 -154 100 -218 52 -84 200 -230 287 -283 78 -47 178 -90 225 -97 31 -5
57 -17 72 -31 23 -23 28 -24 203 -24 174 0 180 1 202 23 14 14 42 27 67 31 23
3 75 25 114 48 40 22 93 51 118 64 71 35 285 256 302 312 5 15 18 44 29 65 11
21 26 60 34 86 7 26 25 57 38 70 l24 23 159 -12 c212 -16 193 -16 328 -6 176
12 342 50 415 95 19 11 42 21 51 21 9 0 36 11 60 23 24 13 57 27 73 31 15 4
40 15 55 25 14 10 55 37 91 60 36 23 98 72 139 109 138 124 1631 1624 1631
1638 0 7 -9 18 -20 24 -27 14 -635 623 -643 644 -8 21 -36 21 -44 0 -3 -9
-352 -362 -774 -785 -678 -677 -779 -775 -861 -828 -58 -38 -107 -62 -133 -66
-22 -3 -70 -13 -106 -21 -59 -14 -72 -14 -125 0 -32 8 -83 18 -112 22 -32 4
-65 16 -80 28 -37 31 -124 86 -134 86 -4 0 -19 17 -32 38 -14 20 -42 62 -63
92 -49 70 -98 242 -91 316 11 113 47 210 115 312 36 53 72 101 79 105 8 4 14
14 14 20 0 11 -616 635 -646 655 -6 4 -13 15 -17 25 -8 23 -36 22 -45 -2z"></path>
</g>
</svg>