 <svg version="1.0" xmlns="http://www.w3.org/2000/svg" width="700.000000pt" height="700.000000pt" viewBox="0 0 700.000000 700.000000" preserveAspectRatio="xMidYMid meet">
<metadata>
Created by potrace 1.12, written by Peter Selinger 2001-2015
</metadata>
<g transform="translate(0.000000,700.000000) scale(0.100000,-0.100000)" fill="#000000" stroke="none">
<path d="M2880 6980 c-21 -16 -58 -23 -210 -35 -102 -9 -214 -23 -250 -31 -36
-8 -98 -19 -138 -24 -40 -5 -103 -18 -140 -29 -37 -11 -94 -23 -127 -26 -54
-6 -143 -30 -265 -71 -25 -9 -74 -24 -110 -35 -36 -10 -76 -25 -90 -33 -14 -8
-43 -17 -65 -21 -22 -4 -78 -26 -124 -49 -46 -22 -93 -45 -105 -51 -147 -70
-258 -134 -312 -177 -36 -29 -84 -68 -107 -85 -78 -60 -98 -78 -135 -118 -20
-22 -49 -52 -64 -68 -16 -16 -28 -32 -28 -36 0 -5 -9 -20 -20 -34 -29 -36
-100 -178 -100 -199 0 -9 -10 -41 -22 -70 l-23 -53 0 -2235 0 -2235 22 -53
c13 -29 23 -61 23 -70 0 -21 71 -163 100 -199 11 -14 20 -29 20 -34 0 -4 12
-20 27 -36 16 -16 45 -46 65 -68 37 -40 56 -57 135 -118 22 -17 70 -54 104
-82 73 -57 82 -63 215 -128 55 -26 106 -52 114 -58 43 -27 182 -87 215 -93 22
-4 55 -16 75 -25 19 -10 60 -24 90 -31 30 -7 71 -21 90 -31 19 -11 45 -19 58
-19 12 0 53 -11 91 -24 38 -13 100 -27 138 -31 37 -4 93 -15 123 -25 30 -10
89 -23 130 -29 41 -5 104 -17 140 -25 36 -8 148 -22 250 -31 153 -13 190 -19
212 -35 26 -19 44 -20 618 -20 574 0 592 1 618 20 22 16 59 22 212 35 102 9
214 23 250 31 36 8 99 20 140 25 41 6 100 19 130 29 30 10 86 21 123 25 38 4
100 18 138 31 38 13 79 24 91 24 13 0 39 8 58 19 19 10 60 24 90 31 30 7 71
21 90 31 20 9 53 21 75 25 33 6 172 66 215 93 8 6 59 32 114 58 133 65 142 71
215 128 34 28 82 65 104 82 79 61 98 78 135 118 20 22 49 52 65 68 15 16 27
32 27 36 0 5 9 20 20 34 29 36 100 178 100 199 0 9 10 41 23 70 l22 53 0 2235
0 2235 -22 53 c-13 29 -23 61 -23 70 0 21 -71 163 -100 199 -11 14 -20 29 -20
34 0 4 -12 20 -27 36 -16 16 -45 46 -65 68 -37 40 -57 58 -135 118 -23 17 -71
56 -107 85 -54 43 -165 107 -312 177 -12 6 -59 29 -105 51 -46 23 -102 45
-124 49 -22 4 -51 13 -65 21 -14 8 -54 23 -90 33 -36 11 -85 26 -110 35 -122
41 -211 65 -265 71 -33 3 -90 15 -127 26 -37 11 -100 24 -140 29 -40 5 -102
16 -138 24 -36 8 -148 22 -250 31 -153 13 -190 19 -212 35 -26 19 -43 20 -620
19 -571 0 -594 -1 -618 -19z m1220 -445 c47 -8 150 -20 230 -26 80 -5 179 -18
220 -29 41 -10 109 -23 150 -29 41 -6 98 -18 125 -26 28 -9 81 -20 118 -25 37
-6 85 -19 105 -29 20 -10 57 -22 82 -26 25 -4 64 -16 87 -26 23 -10 66 -24 95
-30 29 -6 65 -20 80 -30 14 -11 29 -19 33 -19 9 0 162 -66 190 -82 11 -7 40
-22 65 -35 25 -13 63 -37 85 -54 22 -16 63 -45 92 -64 28 -18 85 -73 127 -122
62 -73 80 -102 105 -173 38 -105 39 -150 4 -254 -38 -114 -158 -264 -253 -317
-19 -11 -55 -35 -80 -54 -41 -31 -119 -72 -267 -141 -29 -13 -77 -35 -105 -48
-29 -14 -75 -30 -102 -36 -27 -6 -61 -17 -75 -25 -15 -7 -45 -16 -66 -20 -22
-4 -65 -18 -95 -30 -30 -12 -80 -25 -110 -29 -30 -4 -84 -15 -120 -26 -36 -10
-92 -22 -125 -25 -33 -4 -92 -15 -130 -26 -39 -10 -137 -23 -219 -29 -82 -6
-183 -18 -225 -26 -176 -35 -1066 -35 -1242 0 -42 8 -143 20 -225 26 -82 6
-180 19 -219 29 -38 11 -97 22 -130 26 -33 3 -89 15 -125 25 -36 11 -90 22
-120 26 -30 4 -80 17 -110 29 -30 12 -73 26 -95 30 -21 4 -51 13 -66 20 -14 8
-48 19 -75 25 -27 6 -73 22 -101 36 -29 13 -77 35 -105 48 -149 69 -227 110
-268 141 -25 19 -58 42 -75 51 -50 28 -100 75 -167 159 -49 62 -70 98 -91 161
-35 104 -34 149 4 254 25 71 43 100 105 173 42 49 99 104 127 122 29 19 70 48
92 64 22 17 60 41 85 54 25 13 54 28 65 35 28 16 181 82 190 82 4 0 19 8 33
19 15 10 51 24 80 30 29 6 72 20 95 30 23 10 62 22 87 26 25 4 62 16 82 26 20
10 68 23 105 29 37 5 91 16 118 25 28 8 84 20 125 26 41 6 109 19 150 29 41
11 141 24 221 29 80 6 170 16 200 22 99 20 309 27 729 24 321 -3 434 -7 500
-20z m-3096 -1819 c88 -58 212 -126 231 -126 6 0 26 -11 45 -25 19 -14 40 -25
48 -25 8 0 38 -11 66 -24 28 -14 71 -31 96 -39 84 -28 145 -49 195 -69 28 -11
82 -26 120 -33 39 -8 86 -20 106 -29 20 -8 83 -23 140 -32 57 -9 114 -20 127
-25 13 -5 82 -16 155 -24 72 -9 154 -22 182 -30 66 -18 103 -23 270 -35 77 -5
228 -17 335 -25 248 -19 512 -19 760 0 107 8 258 20 335 25 167 12 204 17 270
35 28 8 110 21 182 30 73 8 142 19 155 24 13 5 70 16 127 25 57 9 120 24 140
32 20 9 68 21 106 29 39 7 93 22 120 33 50 20 111 41 195 69 25 8 68 25 96 39
28 13 58 24 66 24 8 0 29 11 48 25 19 14 39 25 45 25 19 0 143 68 231 126 44
30 88 54 97 54 35 0 39 -44 35 -415 -4 -337 -6 -363 -25 -406 -12 -26 -24 -61
-28 -78 -12 -55 -159 -225 -225 -262 -19 -11 -55 -35 -80 -54 -40 -31 -112
-68 -265 -140 -130 -60 -247 -103 -360 -131 -33 -8 -82 -23 -110 -34 -27 -10
-84 -25 -125 -33 -41 -8 -113 -22 -160 -31 -47 -9 -125 -26 -175 -37 -49 -12
-151 -25 -225 -30 -74 -5 -171 -16 -215 -25 -194 -37 -1076 -37 -1270 0 -44 9
-141 20 -215 25 -74 5 -176 18 -225 30 -50 11 -124 27 -165 35 -195 37 -249
49 -295 66 -27 11 -77 26 -110 34 -113 28 -230 71 -360 131 -153 72 -225 109
-265 140 -25 19 -61 43 -80 54 -66 37 -213 207 -225 262 -4 17 -16 52 -28 78
-19 43 -21 69 -25 406 -4 371 0 415 35 415 9 0 53 -24 97 -54z m-4 -1266 c77
-65 97 -78 259 -165 20 -11 48 -28 61 -37 14 -10 31 -18 40 -18 8 0 42 -14 75
-30 33 -16 66 -30 74 -30 8 0 33 -11 55 -24 23 -13 61 -27 86 -31 25 -4 61
-15 80 -25 19 -9 64 -23 100 -30 36 -6 77 -18 93 -26 15 -8 67 -19 115 -25 48
-6 121 -19 162 -29 42 -11 116 -24 166 -30 50 -5 111 -17 134 -25 42 -15 109
-22 420 -46 80 -6 190 -15 245 -19 129 -12 541 -12 670 0 55 4 165 13 245 19
311 24 378 31 420 46 23 8 84 20 134 25 50 6 124 19 166 30 41 10 114 23 162
29 48 6 100 17 115 25 16 8 57 20 93 26 36 7 81 21 100 30 19 10 55 21 80 25
25 4 63 18 86 31 22 13 47 24 55 24 8 0 41 14 74 30 33 16 67 30 75 30 9 0 26
8 40 18 13 9 41 26 61 37 58 31 152 84 174 98 11 6 56 42 99 80 118 100 111
122 111 -366 l-1 -402 -29 -85 c-29 -85 -96 -184 -170 -253 -70 -66 -287 -203
-354 -223 -25 -8 -52 -20 -60 -28 -9 -7 -34 -19 -56 -26 -22 -7 -51 -19 -64
-28 -14 -8 -54 -23 -90 -32 -36 -10 -86 -25 -111 -34 -87 -30 -146 -48 -205
-62 -204 -49 -275 -64 -297 -64 -13 0 -60 -9 -104 -21 -43 -11 -153 -27 -244
-34 -91 -8 -208 -22 -260 -31 -82 -15 -163 -17 -580 -17 -417 0 -498 2 -580
17 -52 9 -169 23 -260 31 -91 7 -201 23 -244 34 -44 12 -91 21 -104 21 -22 0
-93 15 -297 64 -59 14 -118 32 -205 62 -25 9 -75 24 -111 34 -36 9 -76 24 -90
32 -13 9 -42 21 -64 28 -22 7 -47 19 -56 27 -9 8 -33 19 -54 24 -46 13 -142
67 -220 124 -33 24 -64 44 -69 44 -17 1 -91 75 -151 150 -47 58 -68 96 -90
161 l-29 85 -1 401 c0 327 3 404 14 418 16 19 11 22 111 -64z m-20 -1296 c65
-55 142 -110 191 -135 28 -15 133 -73 159 -88 20 -12 115 -50 170 -69 25 -8
56 -23 70 -32 14 -10 45 -21 70 -25 25 -4 70 -17 100 -30 30 -12 75 -25 99
-29 24 -4 56 -13 71 -21 16 -8 77 -22 137 -30 59 -8 131 -22 159 -30 28 -8 94
-19 148 -25 54 -6 110 -16 123 -21 55 -21 123 -30 326 -44 117 -8 268 -20 337
-26 161 -16 559 -16 720 0 69 6 220 18 337 26 203 14 271 23 326 44 13 5 69
15 123 21 54 6 120 17 148 25 28 8 100 22 159 30 60 8 121 22 137 30 15 8 47
17 71 21 24 4 69 17 99 29 30 13 75 26 100 30 25 4 56 15 70 25 14 9 45 24 70
32 55 19 150 57 170 69 30 17 133 74 166 91 46 25 101 64 183 132 41 34 77 56
85 53 24 -10 28 -82 24 -459 l-4 -363 -32 -89 c-27 -75 -44 -103 -105 -175
-40 -47 -97 -103 -127 -124 -30 -21 -72 -50 -93 -65 -40 -28 -140 -87 -167
-98 -8 -4 -49 -22 -91 -40 -42 -19 -80 -34 -84 -34 -4 0 -19 -8 -33 -19 -15
-10 -51 -24 -80 -30 -29 -6 -72 -20 -95 -30 -23 -10 -62 -22 -87 -26 -25 -4
-62 -16 -82 -26 -20 -10 -68 -23 -105 -29 -37 -5 -90 -16 -118 -25 -27 -8 -84
-20 -125 -26 -41 -6 -109 -19 -150 -29 -41 -11 -140 -24 -220 -30 -80 -5 -185
-18 -235 -27 -134 -25 -1056 -25 -1190 0 -49 9 -155 22 -235 27 -80 6 -179 19
-220 30 -41 10 -109 23 -150 29 -41 6 -97 18 -125 26 -27 9 -81 20 -118 25
-37 6 -85 19 -105 29 -20 10 -57 22 -82 26 -25 4 -64 16 -87 26 -23 10 -66 24
-95 30 -29 6 -65 20 -80 30 -14 11 -29 19 -33 19 -4 0 -42 15 -84 34 -42 18
-83 36 -91 40 -27 11 -127 70 -167 98 -21 15 -63 44 -93 65 -30 21 -87 77
-127 124 -61 72 -78 101 -105 175 l-32 89 -1 395 c0 217 3 403 7 413 11 27 28
20 98 -39z"></path>
<path d="M5358 4117 c-26 -17 -60 -50 -75 -72 -24 -35 -28 -50 -28 -110 0 -65
3 -73 34 -113 86 -107 187 -132 283 -70 27 18 63 52 79 76 25 38 29 52 29 116
0 60 -4 76 -20 91 -11 10 -22 25 -25 35 -3 9 -27 31 -54 48 -42 28 -58 32
-112 32 -56 0 -70 -5 -111 -33z"></path>
<path d="M5367 2811 c-44 -25 -65 -49 -104 -115 -7 -12 -13 -46 -13 -77 0 -48
5 -62 30 -94 17 -21 30 -41 30 -46 0 -4 24 -21 54 -38 74 -43 138 -43 212 -1
29 17 56 39 59 49 3 10 14 26 25 36 17 15 20 31 20 100 0 69 -3 85 -20 100
-11 10 -22 26 -25 36 -3 10 -30 32 -59 49 -73 41 -141 41 -209 1z"></path>
<path d="M5369 1500 c-25 -16 -61 -49 -80 -72 -31 -40 -34 -48 -34 -113 0 -60
4 -75 28 -110 15 -22 49 -55 75 -72 41 -28 55 -33 111 -33 54 0 70 4 112 32
27 17 49 35 49 39 0 4 12 21 26 38 22 27 26 40 26 99 0 59 -4 74 -30 113 -72
106 -192 140 -283 79z"></path>
</g>
</svg>