 <svg version="1.0" xmlns="http://www.w3.org/2000/svg" width="700.000000pt" height="700.000000pt" viewBox="0 0 700.000000 700.000000" preserveAspectRatio="xMidYMid meet">
<metadata>
Created by potrace 1.12, written by Peter Selinger 2001-2015
</metadata>
<g transform="translate(0.000000,700.000000) scale(0.100000,-0.100000)" fill="#000000" stroke="none">
<path d="M500 6279 c-72 -10 -186 -54 -222 -85 -16 -13 -33 -24 -36 -24 -8 0
-71 -59 -92 -86 -56 -73 -91 -136 -101 -183 -6 -29 -20 -60 -30 -69 -19 -16
-19 -71 -19 -2332 0 -2261 0 -2316 19 -2332 10 -9 24 -40 30 -69 10 -47 45
-110 101 -183 21 -27 84 -86 92 -86 3 0 20 -12 37 -26 17 -14 70 -40 118 -57
l88 -32 3015 0 3015 0 88 32 c48 17 101 43 118 57 17 14 34 26 37 26 8 0 71
59 92 86 56 73 91 136 101 183 6 29 20 60 30 69 19 16 19 71 19 2332 0 2261 0
2316 -19 2332 -10 9 -24 40 -30 69 -10 47 -45 110 -101 183 -21 27 -84 86 -92
86 -3 0 -20 12 -37 26 -17 14 -70 40 -118 57 l-88 32 -2980 1 c-1639 1 -3005
-2 -3035 -7z m5964 -458 c25 -16 45 -39 57 -68 18 -41 19 -74 19 -432 0 -382
0 -388 -21 -407 -21 -19 -85 -19 -3019 -19 -2934 0 -2998 0 -3019 19 -21 19
-21 25 -21 407 0 361 1 390 19 433 23 53 63 78 136 87 28 3 1346 5 2930 5
l2880 -1 39 -24z m62 -2332 c12 -10 14 -194 14 -1104 0 -1051 -1 -1095 -19
-1138 -12 -29 -32 -52 -57 -68 l-39 -24 -2925 0 -2925 0 -39 24 c-25 16 -45
39 -57 68 -18 43 -19 87 -19 1138 0 862 3 1095 13 1103 6 5 23 12 37 14 14 1
1370 2 3014 1 2205 -2 2992 -6 3002 -14z"></path>
<path d="M952 2078 c-17 -17 -17 -409 0 -426 9 -9 121 -12 444 -12 380 0 434
2 448 16 13 13 16 46 16 208 0 174 -2 195 -18 209 -17 15 -62 17 -448 17 -321
0 -433 -3 -442 -12z"></path>
<path d="M2361 2071 c-17 -17 -18 -34 -16 -212 3 -172 5 -194 21 -206 23 -17
1303 -19 1335 -3 18 10 19 23 19 210 0 167 -2 201 -16 214 -14 14 -88 16 -670
16 -627 0 -655 -1 -673 -19z"></path>
</g>
</svg>