 <svg version="1.0" xmlns="http://www.w3.org/2000/svg" width="700.000000pt" height="700.000000pt" viewBox="0 0 700.000000 700.000000" preserveAspectRatio="xMidYMid meet">
<metadata>
Created by potrace 1.12, written by Peter Selinger 2001-2015
</metadata>
<g transform="translate(0.000000,700.000000) scale(0.100000,-0.100000)" fill="#000000" stroke="none">
<path d="M349 6621 c-107 -19 -128 -31 -220 -124 -35 -36 -63 -75 -74 -105 -9
-26 -26 -54 -36 -64 -19 -16 -19 -72 -19 -2322 0 -1971 2 -2306 14 -2313 8 -4
26 -33 40 -63 14 -30 38 -72 53 -92 28 -36 139 -118 162 -118 6 0 37 -9 68
-20 57 -20 83 -20 3163 -20 l3105 0 87 28 c47 16 94 36 103 46 9 9 29 23 45
31 15 8 37 29 49 47 11 18 30 47 41 63 11 17 20 37 20 46 0 9 11 27 25 40 l25
24 0 2303 c0 2248 0 2304 -19 2320 -10 10 -26 37 -36 63 -16 45 -117 169 -138
169 -6 0 -21 10 -34 21 -16 16 -51 27 -130 40 -103 18 -236 19 -3153 18 -2819
-1 -3052 -2 -3141 -18z m6087 -569 c34 -22 34 -29 34 -1974 0 -1725 -2 -1926
-16 -1946 l-15 -22 -2939 0 -2939 0 -15 22 c-14 20 -16 221 -16 1946 0 1945 0
1952 34 1974 6 4 1327 8 2936 8 1609 0 2930 -4 2936 -8z"></path>
<path d="M5386 4868 c-56 -10 -118 -56 -162 -120 -27 -39 -29 -48 -30 -146
l-1 -104 -59 -57 c-32 -31 -90 -85 -129 -120 -38 -36 -88 -81 -110 -101 -22
-20 -80 -72 -130 -116 -124 -110 -184 -164 -220 -200 -51 -49 -87 -60 -135
-40 -59 23 -166 21 -208 -4 -18 -11 -42 -20 -54 -20 -18 0 -127 84 -228 177
-14 12 -88 75 -165 139 -77 65 -149 127 -161 138 -11 12 -50 47 -87 79 l-67
58 0 92 c0 90 -1 93 -40 154 -24 37 -53 69 -73 79 -17 9 -40 23 -49 32 -11 9
-45 17 -90 19 -68 4 -77 3 -138 -30 -51 -27 -74 -47 -105 -92 -39 -57 -40 -60
-43 -157 l-4 -99 -68 -57 c-38 -31 -101 -82 -140 -112 -85 -65 -145 -112 -182
-143 -14 -12 -48 -38 -73 -57 -26 -19 -84 -64 -129 -100 -45 -36 -103 -81
-129 -100 -27 -19 -80 -61 -120 -93 -87 -70 -87 -71 -162 -127 -33 -25 -88
-67 -122 -95 -163 -131 -148 -125 -257 -100 -51 12 -80 13 -126 6 -69 -11 -70
-12 -131 -62 -60 -50 -105 -155 -96 -224 8 -52 46 -133 81 -168 43 -43 118
-79 177 -84 81 -8 180 38 233 107 40 52 61 135 51 200 -5 31 0 40 33 75 22 22
74 67 117 100 42 33 119 94 170 135 86 69 145 116 219 173 16 12 39 31 52 42
12 11 43 36 69 55 25 19 90 71 145 115 54 44 130 105 170 135 39 30 84 65 98
77 207 172 230 185 280 159 36 -18 82 -21 188 -12 l81 8 304 -258 c167 -141
329 -281 359 -310 54 -53 54 -54 61 -126 8 -93 48 -157 129 -208 51 -31 61
-34 140 -34 80 -1 88 1 141 34 35 22 68 54 89 85 30 45 34 59 39 146 l6 95 39
35 c22 19 54 48 71 64 58 55 119 111 205 185 89 78 318 285 335 304 22 24 84
66 98 66 8 0 31 -7 50 -15 54 -22 105 -18 172 14 101 48 166 141 167 239 2
110 -78 233 -169 262 -47 14 -125 18 -177 8z"></path>
<path d="M2715 1150 c-33 -13 -745 -736 -745 -755 0 -8 9 -19 19 -25 21 -11
2987 -15 3029 -4 13 4 22 14 22 26 0 11 -106 126 -273 296 -150 152 -308 315
-352 360 -44 46 -92 90 -107 98 -23 12 -154 14 -800 13 -425 0 -782 -4 -793
-9z"></path>
</g>
</svg>