 <svg version="1.0" xmlns="http://www.w3.org/2000/svg" width="700.000000pt" height="700.000000pt" viewBox="0 0 700.000000 700.000000" preserveAspectRatio="xMidYMid meet">
<metadata>
Created by potrace 1.12, written by Peter Selinger 2001-2015
</metadata>
<g transform="translate(0.000000,700.000000) scale(0.100000,-0.100000)" fill="#000000" stroke="none">
<path d="M320 6510 c-87 -7 -101 -11 -150 -43 -66 -43 -90 -68 -118 -123 -12
-23 -28 -44 -37 -47 -13 -6 -15 -222 -15 -2099 0 -2074 0 -2093 20 -2106 11
-6 28 -29 39 -51 33 -64 108 -118 202 -146 l83 -25 1161 0 c1094 0 1163 -1
1178 -17 13 -16 15 -64 16 -364 0 -280 -2 -350 -13 -365 -14 -18 -38 -19 -513
-24 l-498 -5 -59 -45 c-32 -25 -76 -71 -97 -103 -39 -58 -39 -59 -39 -159 0
-89 3 -103 23 -128 12 -16 30 -40 40 -54 10 -15 43 -45 74 -68 l57 -42 135 -7
c177 -10 3205 -10 3382 0 l135 7 57 42 c31 23 64 53 74 68 10 14 28 38 41 54
19 25 22 39 22 128 0 100 0 101 -39 159 -21 32 -65 78 -97 103 l-59 45 -498 5
c-475 5 -499 6 -513 24 -11 15 -13 85 -13 365 1 300 3 348 16 364 15 16 84 17
1178 17 l1161 0 83 25 c94 28 169 82 202 146 11 22 28 45 39 51 20 13 20 32
20 2106 0 1877 -2 2093 -15 2099 -9 3 -25 24 -37 47 -28 54 -52 80 -117 122
-50 33 -61 36 -170 45 -138 10 -6201 10 -6341 -1z m6164 -522 c14 -20 16 -205
16 -1780 0 -1050 -4 -1766 -9 -1781 -5 -13 -17 -27 -26 -31 -22 -8 -5908 -8
-5930 0 -9 4 -21 18 -26 31 -5 15 -9 731 -9 1781 0 1575 2 1760 16 1780 l15
22 2969 0 2969 0 15 -22z"></path>
<path d="M3793 5485 c-40 -14 -71 -32 -89 -54 -38 -45 -80 -138 -94 -207 -7
-33 -18 -69 -26 -81 -8 -13 -21 -52 -30 -89 -8 -36 -21 -76 -29 -88 -7 -11
-19 -48 -25 -81 -7 -32 -18 -68 -25 -80 -8 -11 -21 -50 -29 -88 -9 -37 -22
-77 -30 -90 -8 -12 -19 -46 -25 -75 -6 -29 -17 -66 -25 -81 -8 -15 -22 -58
-30 -95 -9 -36 -22 -76 -30 -89 -8 -12 -19 -48 -25 -79 -6 -32 -17 -68 -25
-80 -8 -13 -22 -53 -30 -91 -9 -37 -22 -77 -29 -90 -8 -12 -20 -49 -27 -82 -7
-33 -18 -69 -26 -80 -7 -11 -20 -51 -29 -89 -8 -38 -20 -75 -25 -81 -5 -6 -16
-41 -25 -77 -8 -36 -22 -78 -30 -94 -8 -16 -20 -53 -26 -83 -6 -30 -21 -73
-33 -95 -17 -34 -21 -58 -21 -137 0 -90 1 -97 29 -130 45 -53 156 -109 180
-90 6 4 33 16 59 26 29 11 58 32 76 54 34 43 86 160 96 216 4 21 15 55 24 75
10 19 22 53 26 75 4 22 17 65 30 95 12 30 26 73 30 95 3 21 15 55 25 75 10 19
21 55 25 80 4 25 15 59 25 75 10 17 23 56 29 87 6 32 17 70 25 86 8 15 22 57
31 92 9 36 21 70 26 76 4 6 16 42 24 80 9 38 22 78 29 89 8 11 19 47 26 80 7
33 21 74 30 91 10 17 21 51 25 75 4 24 17 67 30 94 12 28 26 70 30 95 4 25 14
59 23 75 8 17 23 59 33 95 9 36 24 85 33 110 8 25 22 65 30 90 8 25 22 65 31
90 12 32 16 68 13 127 -3 78 -5 84 -38 119 -32 33 -86 64 -135 76 -11 3 -48
-5 -82 -17z"></path>
<path d="M2720 4910 c-14 -4 -38 -15 -55 -24 -16 -9 -34 -16 -40 -16 -5 0 -37
-13 -70 -29 -120 -58 -281 -134 -345 -163 -73 -33 -129 -59 -241 -112 -41 -20
-79 -36 -83 -36 -4 0 -20 -8 -34 -19 -15 -10 -40 -21 -56 -25 -17 -4 -41 -15
-55 -25 -14 -10 -42 -23 -61 -30 -63 -20 -133 -78 -167 -139 -40 -69 -41 -105
-6 -168 25 -46 94 -124 109 -124 4 0 42 -16 83 -36 42 -20 99 -46 126 -59 28
-13 104 -49 170 -80 124 -58 170 -80 290 -135 39 -18 97 -45 129 -61 32 -16
64 -29 70 -29 6 0 22 -9 36 -20 14 -11 32 -20 40 -20 8 0 42 -14 75 -30 108
-54 211 -38 279 42 40 47 50 88 40 175 -5 55 -10 66 -30 73 -12 5 -28 18 -33
29 -6 11 -23 26 -38 34 -16 8 -41 21 -58 30 -16 9 -66 33 -110 53 -44 20 -107
49 -140 64 -33 16 -87 40 -120 55 -59 26 -78 36 -112 55 -10 5 -35 16 -56 24
l-38 15 16 31 c10 20 31 37 53 46 20 8 60 25 87 38 28 13 82 38 120 56 39 17
78 36 88 41 42 22 56 29 117 58 36 17 77 33 91 36 15 4 57 35 95 69 l69 63 0
86 0 86 -40 41 c-37 37 -132 91 -159 89 -6 0 -22 -4 -36 -9z"></path>
<path d="M4169 4893 c-25 -13 -63 -41 -85 -64 l-39 -40 0 -86 0 -86 69 -63
c38 -34 80 -65 95 -69 14 -3 53 -19 86 -34 33 -16 110 -52 170 -81 61 -29 133
-63 160 -76 28 -13 67 -30 87 -38 22 -9 43 -26 53 -46 l16 -31 -38 -15 c-21
-8 -46 -19 -55 -24 -35 -19 -54 -29 -113 -55 -57 -26 -117 -53 -250 -116 -33
-15 -76 -35 -95 -43 -61 -27 -98 -52 -142 -95 l-42 -42 0 -83 c-1 -75 1 -86
26 -119 53 -68 83 -82 178 -82 71 0 90 4 116 22 16 12 43 25 60 29 16 4 40 15
54 24 14 10 36 21 50 25 14 4 45 18 70 30 25 13 77 38 115 55 98 45 153 70
290 135 66 31 143 67 170 80 28 13 84 39 126 59 41 20 79 36 83 36 15 0 84 78
109 124 35 63 34 99 -6 168 -34 61 -104 119 -167 139 -19 7 -47 20 -61 30 -14
10 -38 21 -55 25 -16 4 -41 15 -56 25 -14 11 -30 19 -34 19 -4 0 -42 16 -83
36 -112 53 -168 79 -241 112 -36 16 -114 53 -175 82 -199 95 -230 108 -255
116 -14 4 -41 15 -60 25 -44 24 -73 22 -131 -8z"></path>
</g>
</svg>